<svg version="1.1" id="Layer_1" xmlns="http://www.w3.org/2000/svg" xmlns:xlink="http://www.w3.org/1999/xlink" x="0px" y="0px"
	 width="100%" viewBox="0 0 360 360" enable-background="new 0 0 360 360" xml:space="preserve">
<path fill="#EEEEEE" opacity="1.000000" stroke="none" 
	d="
M1.000000,25.000000 
	C1.000000,17.073662 1.000000,9.147325 1.000000,1.000000 
	C8.686132,1.000000 16.374374,1.000000 24.531307,1.468636 
	C25.001707,9.626549 25.003414,17.315825 24.535915,25.003204 
	C16.377808,25.000872 8.688904,25.000435 1.000000,25.000000 
z"/>
<path fill="#FFFFFF" opacity="1.000000" stroke="none" 
	d="
M361.000000,265.000000 
	C361.000000,272.687592 361.000000,280.375153 360.531372,288.531372 
	C352.373505,289.001678 344.684235,289.003326 336.996857,288.535797 
	C336.997498,280.376068 336.996246,272.685516 337.463928,264.996643 
	C345.621918,264.998840 353.310974,264.999420 361.000000,265.000000 
z"/>
<path fill="#EEEEEE" opacity="1.000000" stroke="none" 
	d="
M1.000000,313.000000 
	C1.000000,305.312408 1.000000,297.624847 1.468636,289.468628 
	C9.626549,288.998352 17.315825,288.996674 25.003206,289.464203 
	C25.002575,297.623932 25.003839,305.314484 24.536152,313.003357 
	C16.378132,313.001160 8.689066,313.000580 1.000000,313.000000 
z"/>
<path fill="#FFFFFF" opacity="1.000000" stroke="none" 
	d="
M1.000000,193.000000 
	C1.000000,185.312424 1.000000,177.624832 1.468636,169.468628 
	C9.626504,168.998291 17.315737,168.996582 25.003065,169.464081 
	C25.002432,177.623901 25.003700,185.314514 24.536024,193.003479 
	C16.378054,193.001221 8.689027,193.000610 1.000000,193.000000 
z"/>
<path fill="#EEEEEE" opacity="1.000000" stroke="none" 
	d="
M1.000000,265.000000 
	C1.000000,257.312408 1.000000,249.624832 1.468636,241.468628 
	C9.626549,240.998291 17.315825,240.996582 25.003204,241.464081 
	C25.002575,249.623856 25.003839,257.314423 24.536152,265.003357 
	C16.378132,265.001160 8.689066,265.000580 1.000000,265.000000 
z"/>
<path fill="#EEEEEE" opacity="1.000000" stroke="none" 
	d="
M361.000000,193.000000 
	C361.000000,200.687576 361.000000,208.375168 360.531372,216.531372 
	C352.373505,217.001709 344.684235,217.003418 336.996857,216.535919 
	C336.997467,208.376099 336.996216,200.685486 337.463928,192.996521 
	C345.621918,192.998779 353.310974,192.999390 361.000000,193.000000 
z"/>
<path fill="#FFFFFF" opacity="1.000000" stroke="none" 
	d="
M361.000000,192.531372 
	C353.310974,192.999390 345.621918,192.998779 337.466431,192.999298 
	C337.000000,193.000427 337.005005,193.005142 337.003174,192.535980 
	C336.999207,184.376175 336.997101,176.685532 337.463928,168.996521 
	C345.621918,168.998779 353.310974,168.999390 361.000000,169.000000 
	C361.000000,176.687576 361.000000,184.375168 361.000000,192.531372 
z"/>
<path fill="#FFFFFF" opacity="1.000000" stroke="none" 
	d="
M25.005102,240.994873 
	C17.315825,240.996582 9.626549,240.998291 1.468636,241.000000 
	C1.000000,233.312424 1.000000,225.624832 1.468636,217.468628 
	C9.626549,216.998291 17.315826,216.996582 25.003208,217.464081 
	C24.999159,225.623901 24.997007,233.314529 24.997257,241.002762 
	C24.999659,241.000381 25.005102,240.994873 25.005102,240.994873 
z"/>
<path fill="#FFFFFF" opacity="1.000000" stroke="none" 
	d="
M336.994995,217.005127 
	C344.684235,217.003418 352.373505,217.001709 360.531372,217.000000 
	C361.000000,224.687576 361.000000,232.375168 360.531372,240.531372 
	C352.373505,241.001709 344.684235,241.003418 336.996857,240.535919 
	C337.000793,232.376099 337.002899,224.685471 337.002502,216.997223 
	C337.000000,216.999573 336.994995,217.005127 336.994995,217.005127 
z"/>
<path fill="#EEEEEE" opacity="1.000000" stroke="none" 
	d="
M336.994995,241.005127 
	C344.684235,241.003418 352.373505,241.001709 360.531372,241.000000 
	C361.000000,248.687576 361.000000,256.375153 361.000000,264.531372 
	C353.310974,264.999420 345.621918,264.998840 337.466431,264.999146 
	C337.000000,265.000000 337.005005,265.005005 337.003143,264.535797 
	C337.002502,256.376007 337.003754,248.685440 337.002502,240.997223 
	C337.000000,240.999573 336.994995,241.005127 336.994995,241.005127 
z"/>
<path fill="#FFFFFF" opacity="1.000000" stroke="none" 
	d="
M1.000000,265.468628 
	C8.689066,265.000580 16.378132,265.001160 24.533401,265.000854 
	C24.999603,265.000000 24.994858,264.994995 24.996748,265.464142 
	C24.997377,273.623871 24.996117,281.314423 24.997231,289.002502 
	C24.999603,289.000000 25.005102,288.994995 25.005102,288.994995 
	C17.315825,288.996674 9.626549,288.998352 1.468636,289.000000 
	C1.000000,281.312408 1.000000,273.624847 1.000000,265.468628 
z"/>
<path fill="#EEEEEE" opacity="1.000000" stroke="none" 
	d="
M25.005104,216.994873 
	C17.315826,216.996582 9.626549,216.998291 1.468636,217.000000 
	C1.000000,209.312424 1.000000,201.624832 1.000000,193.468628 
	C8.689027,193.000610 16.378054,193.001221 24.533388,193.000732 
	C24.999697,192.999619 24.994919,192.995026 24.996532,193.464218 
	C24.997072,201.623978 24.995996,209.314529 24.997299,217.002731 
	C24.999678,217.000366 25.005104,216.994873 25.005104,216.994873 
z"/>
<path fill="#EEEEEE" opacity="1.000000" stroke="none" 
	d="
M169.000000,361.000000 
	C161.312424,361.000000 153.624832,361.000000 145.468628,360.531372 
	C144.998291,352.373505 144.996582,344.684235 145.464081,336.996857 
	C153.623901,336.997498 161.314514,336.996246 169.003479,337.463928 
	C169.001221,345.621918 169.000610,353.310974 169.000000,361.000000 
z"/>
<path fill="#FFFFFF" opacity="1.000000" stroke="none" 
	d="
M361.000000,313.000000 
	C361.000000,320.687592 361.000000,328.375153 360.531372,336.531372 
	C352.373505,336.998322 344.684235,336.996674 336.997498,336.997498 
	C337.000000,337.000000 337.005005,337.005005 337.003174,336.535858 
	C336.999207,328.376129 336.997101,320.685577 337.463928,312.996643 
	C345.621918,312.998840 353.310974,312.999420 361.000000,313.000000 
z"/>
<path fill="#EEEEEE" opacity="1.000000" stroke="none" 
	d="
M25.000000,361.000000 
	C17.073664,361.000000 9.147327,361.000000 1.000000,361.000000 
	C1.000000,353.313873 1.000000,345.625610 1.468636,337.468689 
	C9.626554,336.998352 17.315836,336.996674 25.003479,337.463928 
	C25.001226,345.621918 25.000614,353.310974 25.000000,361.000000 
z"/>
<path fill="#FFFFFF" opacity="1.000000" stroke="none" 
	d="
M25.468636,361.000000 
	C25.000614,353.310974 25.001226,345.621918 25.000721,337.466431 
	C24.999603,337.000000 24.994858,337.005005 25.464066,337.003143 
	C33.623886,336.999207 41.314495,336.997101 49.003471,337.463928 
	C49.001225,345.621918 49.000610,353.310974 49.000000,361.000000 
	C41.312424,361.000000 33.624847,361.000000 25.468636,361.000000 
z"/>
<path fill="#EEEEEE" opacity="1.000000" stroke="none" 
	d="
M49.468636,361.000000 
	C49.000610,353.310974 49.001225,345.621918 49.000710,337.466431 
	C48.999580,337.000000 48.994862,337.005005 49.464016,337.003174 
	C57.623817,336.999237 65.314461,336.997101 73.003479,337.463928 
	C73.001228,345.621918 73.000618,353.310974 73.000000,361.000000 
	C65.312424,361.000000 57.624847,361.000000 49.468636,361.000000 
z"/>
<path fill="#FFFFFF" opacity="1.000000" stroke="none" 
	d="
M73.468636,361.000000 
	C73.000618,353.310974 73.001228,345.621918 73.000702,337.466431 
	C72.999573,337.000000 72.994850,337.005005 73.464005,337.003174 
	C81.623817,336.999237 89.314461,336.997131 97.003479,337.463928 
	C97.001228,345.621918 97.000618,353.310974 97.000000,361.000000 
	C89.312424,361.000000 81.624847,361.000000 73.468636,361.000000 
z"/>
<path fill="#EEEEEE" opacity="1.000000" stroke="none" 
	d="
M97.468636,361.000000 
	C97.000618,353.310974 97.001228,345.621918 97.000702,337.466431 
	C96.999573,337.000000 96.994850,337.005005 97.464005,337.003174 
	C105.623817,336.999237 113.314461,336.997101 121.003479,337.463928 
	C121.001228,345.621918 121.000618,353.310974 121.000000,361.000000 
	C113.312424,361.000000 105.624847,361.000000 97.468636,361.000000 
z"/>
<path fill="#FFFFFF" opacity="1.000000" stroke="none" 
	d="
M121.468636,361.000000 
	C121.000618,353.310974 121.001228,345.621918 121.000702,337.466431 
	C120.999573,337.000000 120.994850,337.005005 121.464005,337.003174 
	C129.623825,337.002563 137.314484,337.003784 145.002777,337.002502 
	C145.000427,337.000000 144.994873,336.994995 144.994873,336.994995 
	C144.996582,344.684235 144.998291,352.373505 145.000000,360.531372 
	C137.312424,361.000000 129.624847,361.000000 121.468636,361.000000 
z"/>
<path fill="#FFFFFF" opacity="1.000000" stroke="none" 
	d="
M169.468628,361.000000 
	C169.000610,353.310974 169.001221,345.621918 169.000702,337.466431 
	C168.999573,337.000000 168.994858,337.005005 169.464020,337.003174 
	C177.623825,336.999237 185.314468,336.997101 193.003479,337.463928 
	C193.001221,345.621918 193.000610,353.310974 193.000000,361.000000 
	C185.312424,361.000000 177.624832,361.000000 169.468628,361.000000 
z"/>
<path fill="#EEEEEE" opacity="1.000000" stroke="none" 
	d="
M193.468628,361.000000 
	C193.000610,353.310974 193.001221,345.621918 193.000702,337.466431 
	C192.999557,337.000000 192.994858,337.005005 193.464020,337.003174 
	C201.623825,336.999207 209.314468,336.997101 217.003479,337.463928 
	C217.001221,345.621918 217.000610,353.310974 217.000000,361.000000 
	C209.312424,361.000000 201.624832,361.000000 193.468628,361.000000 
z"/>
<path fill="#FFFFFF" opacity="1.000000" stroke="none" 
	d="
M217.468628,361.000000 
	C217.000610,353.310974 217.001221,345.621918 217.000702,337.466431 
	C216.999557,337.000000 216.994858,337.005005 217.464020,337.003174 
	C225.623825,336.999237 233.314468,336.997131 241.003479,337.463928 
	C241.001221,345.621918 241.000610,353.310974 241.000000,361.000000 
	C233.312424,361.000000 225.624832,361.000000 217.468628,361.000000 
z"/>
<path fill="#EEEEEE" opacity="1.000000" stroke="none" 
	d="
M241.468628,361.000000 
	C241.000610,353.310974 241.001221,345.621918 241.000702,337.466431 
	C240.999557,337.000000 240.994858,337.005005 241.464020,337.003174 
	C249.623779,336.999237 257.314392,336.997101 265.003357,337.463928 
	C265.001160,345.621918 265.000580,353.310974 265.000000,361.000000 
	C257.312408,361.000000 249.624832,361.000000 241.468628,361.000000 
z"/>
<path fill="#FFFFFF" opacity="1.000000" stroke="none" 
	d="
M265.468628,361.000000 
	C265.000580,353.310974 265.001160,345.621918 265.000854,337.466431 
	C265.000000,337.000000 264.994995,337.005005 265.464142,337.003174 
	C273.623871,336.999207 281.314423,336.997101 289.003357,337.463928 
	C289.001160,345.621918 289.000580,353.310974 289.000000,361.000000 
	C281.312408,361.000000 273.624847,361.000000 265.468628,361.000000 
z"/>
<path fill="#EEEEEE" opacity="1.000000" stroke="none" 
	d="
M289.468628,361.000000 
	C289.000580,353.310974 289.001160,345.621918 289.000854,337.466431 
	C289.000000,337.000000 288.994995,337.005005 289.464142,337.003174 
	C297.623871,337.002563 305.314423,337.003784 313.002502,337.002502 
	C313.000000,337.000000 312.994995,336.994995 312.996643,337.463928 
	C312.998840,345.621918 312.999420,353.310974 313.000000,361.000000 
	C305.312408,361.000000 297.624847,361.000000 289.468628,361.000000 
z"/>
<path fill="#FFFFFF" opacity="1.000000" stroke="none" 
	d="
M313.468628,361.000000 
	C312.999420,353.310974 312.998840,345.621918 313.465820,337.465820 
	C321.623932,337.000824 329.314484,337.002899 337.005005,337.005005 
	C337.005005,337.005005 337.000000,337.000000 336.999359,337.466705 
	C336.999146,345.622284 336.999573,353.311127 337.000000,361.000000 
	C329.312408,361.000000 321.624847,361.000000 313.468628,361.000000 
z"/>
<path fill="#EEEEEE" opacity="1.000000" stroke="none" 
	d="
M337.468689,361.000000 
	C336.999573,353.311127 336.999146,345.622284 336.996857,337.464203 
	C344.684235,336.996674 352.373505,336.998322 360.531372,337.000000 
	C361.000000,344.926331 361.000000,352.852692 361.000000,361.000000 
	C353.313873,361.000000 345.625610,361.000000 337.468689,361.000000 
z"/>
<path fill="#EEEEEE" opacity="1.000000" stroke="none" 
	d="
M361.000000,312.531372 
	C353.310974,312.999420 345.621918,312.998840 337.466431,312.999146 
	C337.000000,313.000000 337.005005,313.005005 337.003174,312.535858 
	C337.002563,304.376129 337.003784,296.685577 337.002502,288.997498 
	C337.000000,289.000000 336.994995,289.005005 336.994995,289.005005 
	C344.684235,289.003326 352.373505,289.001678 360.531372,289.000000 
	C361.000000,296.687592 361.000000,304.375153 361.000000,312.531372 
z"/>
<path fill="#FFFFFF" opacity="1.000000" stroke="none" 
	d="
M25.002361,336.997498 
	C17.315836,336.996674 9.626554,336.998352 1.468636,337.000000 
	C1.000000,329.312408 1.000000,321.624847 1.000000,313.468628 
	C8.689066,313.000580 16.378132,313.001160 24.533401,313.000854 
	C24.999603,313.000000 24.994858,312.994995 24.996748,313.464142 
	C24.997379,321.623871 24.996119,329.314423 24.994858,337.005005 
	C24.994858,337.005005 24.999603,337.000000 25.002361,336.997498 
z"/>
<path fill="#FFFFFF" opacity="1.000000" stroke="none" 
	d="
M361.000000,25.000000 
	C361.000000,32.687576 361.000000,40.375153 360.531372,48.531364 
	C352.373505,49.001705 344.684235,49.003407 336.996857,48.535904 
	C337.000793,40.376087 337.002899,32.685471 337.002502,24.997429 
	C337.000000,25.000000 336.994995,25.005142 337.464142,25.003252 
	C345.622192,25.000908 353.311096,25.000454 361.000000,25.000000 
z"/>
<path fill="#EEEEEE" opacity="1.000000" stroke="none" 
	d="
M1.000000,73.000000 
	C1.000000,65.312424 1.000000,57.624847 1.468636,49.468636 
	C9.626549,48.998295 17.315825,48.996590 25.003204,49.464088 
	C25.002573,57.623905 25.003839,65.314514 24.536152,73.003479 
	C16.378132,73.001228 8.689066,73.000618 1.000000,73.000000 
z"/>
<path fill="#EEEEEE" opacity="1.000000" stroke="none" 
	d="
M336.994995,49.005112 
	C344.684235,49.003407 352.373505,49.001705 360.531372,49.000000 
	C361.000000,56.687576 361.000000,64.375153 360.531372,72.531364 
	C352.373505,73.001709 344.684235,73.003426 336.996857,72.535927 
	C337.000793,64.376091 337.002899,56.685478 337.002502,48.997231 
	C337.000000,48.999596 336.994995,49.005112 336.994995,49.005112 
z"/>
<path fill="#FFFFFF" opacity="1.000000" stroke="none" 
	d="
M1.000000,73.468636 
	C8.689066,73.000618 16.378132,73.001228 24.533424,73.000740 
	C24.999653,72.999641 24.994858,72.994850 24.996746,73.464005 
	C25.000792,81.623817 25.002947,89.314468 24.536148,97.003479 
	C16.378130,97.001228 8.689065,97.000618 1.000000,97.000000 
	C1.000000,89.312424 1.000000,81.624847 1.000000,73.468636 
z"/>
<path fill="#EEEEEE" opacity="1.000000" stroke="none" 
	d="
M361.000000,168.531372 
	C353.310974,168.999390 345.621918,168.998779 337.466431,168.999298 
	C337.000000,169.000443 337.004974,169.005112 337.003479,168.535950 
	C336.999786,160.376160 336.997620,152.685516 337.464355,144.996521 
	C345.622192,144.998779 353.311096,144.999390 361.000000,145.000000 
	C361.000000,152.687576 361.000000,160.375168 361.000000,168.531372 
z"/>
<path fill="#FFFFFF" opacity="1.000000" stroke="none" 
	d="
M336.994995,73.005142 
	C344.684235,73.003426 352.373505,73.001709 360.531372,73.000000 
	C361.000000,80.687576 361.000000,88.375153 360.531372,96.531364 
	C352.372314,97.001160 344.681885,97.002319 336.993042,96.534470 
	C336.997650,88.375710 337.000641,80.685974 337.001831,72.998077 
	C337.000000,72.999908 336.994995,73.005142 336.994995,73.005142 
z"/>
<path fill="#EEEEEE" opacity="1.000000" stroke="none" 
	d="
M1.000000,97.468636 
	C8.689065,97.000618 16.378130,97.001228 24.533417,97.000732 
	C24.999640,96.999619 24.994858,96.994850 24.996746,97.464005 
	C25.000792,105.623817 25.002947,113.314468 24.536148,121.003479 
	C16.378130,121.001228 8.689065,121.000618 1.000000,121.000000 
	C1.000000,113.312424 1.000000,105.624847 1.000000,97.468636 
z"/>
<path fill="#FFFFFF" opacity="1.000000" stroke="none" 
	d="
M265.000000,1.000000 
	C272.687592,1.000000 280.375153,1.000000 288.531372,1.468636 
	C289.001648,9.626549 289.003326,17.315825 288.535797,25.003206 
	C280.376068,25.002575 272.685516,25.003839 264.996643,24.536152 
	C264.998840,16.378132 264.999420,8.689066 265.000000,1.000000 
z"/>
<path fill="#FFFFFF" opacity="1.000000" stroke="none" 
	d="
M25.005121,25.005102 
	C25.003414,17.315825 25.001707,9.626549 25.000000,1.468636 
	C32.687576,1.000000 40.375153,1.000000 48.531364,1.468636 
	C49.001705,9.626549 49.003410,17.315825 48.535912,25.003204 
	C40.376087,24.999159 32.685474,24.997007 24.997255,24.997255 
	C24.999653,24.999653 25.005121,25.005102 25.005121,25.005102 
z"/>
<path fill="#EEEEEE" opacity="1.000000" stroke="none" 
	d="
M49.005116,25.005102 
	C49.003410,17.315825 49.001705,9.626549 49.000000,1.468636 
	C56.687576,1.000000 64.375153,1.000000 72.531364,1.468636 
	C73.001709,9.626549 73.003418,17.315825 72.535912,25.003206 
	C64.376091,24.999159 56.685474,24.997009 48.997253,24.997255 
	C48.999649,24.999653 49.005116,25.005102 49.005116,25.005102 
z"/>
<path fill="#FFFFFF" opacity="1.000000" stroke="none" 
	d="
M73.005119,25.005102 
	C73.003418,17.315825 73.001709,9.626549 73.000000,1.468636 
	C80.687576,1.000000 88.375153,1.000000 96.531364,1.468636 
	C97.001709,9.626549 97.003418,17.315825 96.535912,25.003206 
	C88.376083,24.999159 80.685471,24.997009 72.997246,24.997255 
	C72.999641,24.999653 73.005119,25.005102 73.005119,25.005102 
z"/>
<path fill="#EEEEEE" opacity="1.000000" stroke="none" 
	d="
M97.005119,25.005102 
	C97.003418,17.315825 97.001709,9.626549 97.000000,1.468636 
	C104.687576,1.000000 112.375153,1.000000 120.531364,1.468636 
	C121.001709,9.626549 121.003418,17.315825 120.535912,25.003206 
	C112.376083,24.999161 104.685471,24.997009 96.997246,24.997255 
	C96.999641,24.999653 97.005119,25.005102 97.005119,25.005102 
z"/>
<path fill="#FFFFFF" opacity="1.000000" stroke="none" 
	d="
M121.005119,25.005102 
	C121.003418,17.315825 121.001709,9.626549 121.000000,1.468636 
	C128.687576,1.000000 136.375168,1.000000 144.531372,1.468636 
	C145.001709,9.626549 145.003418,17.315825 144.535919,25.003204 
	C136.376083,24.999159 128.685471,24.997007 120.997246,24.997255 
	C120.999641,24.999653 121.005119,25.005102 121.005119,25.005102 
z"/>
<path fill="#EEEEEE" opacity="1.000000" stroke="none" 
	d="
M145.005127,25.005102 
	C145.003418,17.315825 145.001709,9.626549 145.000000,1.468636 
	C152.687576,1.000000 160.375168,1.000000 168.531372,1.468636 
	C169.001709,9.626549 169.003418,17.315825 168.535919,25.003204 
	C160.376099,24.999159 152.685471,24.997007 144.997238,24.997257 
	C144.999619,24.999659 145.005127,25.005102 145.005127,25.005102 
z"/>
<path fill="#FFFFFF" opacity="1.000000" stroke="none" 
	d="
M169.005127,25.005102 
	C169.003418,17.315825 169.001709,9.626549 169.000000,1.468636 
	C176.687576,1.000000 184.375168,1.000000 192.531372,1.468636 
	C193.001709,9.626549 193.003418,17.315825 192.535919,25.003204 
	C184.376099,24.999159 176.685471,24.997009 168.997238,24.997257 
	C168.999619,24.999659 169.005127,25.005102 169.005127,25.005102 
z"/>
<path fill="#EEEEEE" opacity="1.000000" stroke="none" 
	d="
M193.005127,25.005102 
	C193.003418,17.315825 193.001709,9.626549 193.000000,1.468636 
	C200.687576,1.000000 208.375168,1.000000 216.531372,1.468636 
	C217.001709,9.626549 217.003418,17.315825 216.535919,25.003204 
	C208.376099,24.999159 200.685471,24.997009 192.997238,24.997257 
	C192.999619,24.999659 193.005127,25.005102 193.005127,25.005102 
z"/>
<path fill="#FFFFFF" opacity="1.000000" stroke="none" 
	d="
M217.005127,25.005102 
	C217.003418,17.315825 217.001709,9.626549 217.000000,1.468636 
	C224.687576,1.000000 232.375168,1.000000 240.531372,1.468636 
	C241.001709,9.626549 241.003418,17.315825 240.535919,25.003204 
	C232.376099,24.999159 224.685471,24.997009 216.997238,24.997257 
	C216.999619,24.999659 217.005127,25.005102 217.005127,25.005102 
z"/>
<path fill="#EEEEEE" opacity="1.000000" stroke="none" 
	d="
M241.005127,25.005102 
	C241.003418,17.315825 241.001709,9.626549 241.000000,1.468636 
	C248.687576,1.000000 256.375153,1.000000 264.531372,1.000000 
	C264.999420,8.689066 264.998840,16.378132 264.999146,24.533401 
	C265.000000,24.999603 265.005005,24.994858 264.535797,24.996769 
	C256.376007,24.997408 248.685440,24.996132 240.997238,24.997257 
	C240.999619,24.999659 241.005127,25.005102 241.005127,25.005102 
z"/>
<path fill="#EEEEEE" opacity="1.000000" stroke="none" 
	d="
M289.005005,25.005102 
	C289.003326,17.315825 289.001648,9.626549 289.000000,1.468636 
	C296.687592,1.000000 304.375153,1.000000 312.531372,1.468636 
	C312.998352,9.626549 312.996674,17.315826 312.997498,25.002354 
	C313.000000,24.999603 313.005005,24.994858 312.535797,24.996769 
	C304.376068,24.997406 296.685516,24.996132 288.997498,24.997231 
	C289.000000,24.999603 289.005005,25.005102 289.005005,25.005102 
z"/>
<path fill="#FFFFFF" opacity="1.000000" stroke="none" 
	d="
M312.994995,25.005104 
	C312.996674,17.315826 312.998352,9.626549 313.000000,1.468636 
	C320.687592,1.000000 328.375153,1.000000 336.531372,1.468636 
	C336.998352,9.626562 336.996674,17.315851 336.994995,25.005142 
	C336.994995,25.005142 337.000000,25.000000 336.533295,24.999340 
	C328.376068,25.000824 320.685516,25.002964 312.994995,25.005104 
z"/>
<path fill="#EEEEEE" opacity="1.000000" stroke="none" 
	d="
M337.464142,25.003252 
	C336.996674,17.315851 336.998352,9.626562 337.000000,1.468636 
	C344.926331,1.000000 352.852692,1.000000 361.000000,1.000000 
	C361.000000,8.686132 361.000000,16.374374 361.000000,24.531307 
	C353.311096,25.000454 345.622192,25.000908 337.464142,25.003252 
z"/>
<path fill="#FFFFFF" opacity="1.000000" stroke="none" 
	d="
M25.005102,48.994884 
	C17.315825,48.996590 9.626549,48.998295 1.468636,49.000000 
	C1.000000,41.312424 1.000000,33.624847 1.000000,25.468636 
	C8.688904,25.000435 16.377808,25.000872 24.535915,25.003204 
	C25.005121,25.005102 24.999653,24.999653 24.999168,25.466463 
	C24.997408,33.623894 24.996134,41.314518 24.997255,49.002747 
	C24.999653,49.000351 25.005102,48.994884 25.005102,48.994884 
z"/>
<path fill="#FFFFFF" opacity="1.000000" stroke="none" 
	d="
M1.000000,121.468636 
	C8.689065,121.000618 16.378130,121.001228 24.533417,121.000732 
	C24.999640,120.999619 24.994860,120.994850 24.996883,121.464005 
	C25.001074,129.623810 25.003244,137.314453 24.536442,145.003479 
	C16.378313,145.001221 8.689157,145.000610 1.000000,145.000000 
	C1.000000,137.312424 1.000000,129.624847 1.000000,121.468636 
z"/>
<path fill="#EEEEEE" opacity="1.000000" stroke="none" 
	d="
M336.991455,97.003487 
	C344.681885,97.002319 352.372314,97.001160 360.531372,97.000000 
	C361.000000,104.687576 361.000000,112.375153 360.531372,120.531364 
	C352.373627,121.001709 344.684540,121.003426 336.997406,120.535919 
	C337.000641,112.374931 337.001892,104.683159 337.001984,96.995499 
	C337.000824,96.999626 336.991455,97.003487 336.991455,97.003487 
z"/>
<path fill="#FFFFFF" opacity="1.000000" stroke="none" 
	d="
M336.995422,121.005135 
	C344.684540,121.003426 352.373627,121.001709 360.531372,121.000000 
	C361.000000,128.687576 361.000000,136.375168 361.000000,144.531372 
	C353.311096,144.999390 345.622192,144.998779 337.466644,144.999298 
	C337.000000,145.000412 337.004974,145.004471 337.003143,144.535339 
	C337.002533,136.375977 337.003754,128.685745 337.002502,120.997574 
	C337.000000,120.999619 336.995422,121.005135 336.995422,121.005135 
z"/>
<path fill="#EEEEEE" opacity="1.000000" stroke="none" 
	d="
M1.000000,145.468628 
	C8.689157,145.000610 16.378313,145.001221 24.533552,145.000732 
	C24.999636,144.999634 24.995031,144.994659 24.996462,145.463837 
	C24.996910,153.623642 24.995930,161.314285 24.997326,169.002640 
	C24.999702,169.000366 25.004969,168.994873 25.004969,168.994873 
	C17.315737,168.996582 9.626504,168.998291 1.468636,169.000000 
	C1.000000,161.312424 1.000000,153.624832 1.000000,145.468628 
z"/>
<path fill="#EEEEEE" opacity="1.000000" stroke="none" 
	d="
M336.997498,264.997498 
	C336.996246,272.685516 336.997498,280.376068 336.996857,288.535797 
	C336.994995,289.005005 337.000000,289.000000 336.533295,288.999359 
	C328.376068,289.000824 320.685516,289.002930 312.996857,288.535797 
	C312.997498,280.376068 312.996246,272.685516 313.463928,264.996643 
	C321.623596,265.000488 329.314301,265.002747 337.005005,265.005005 
	C337.005005,265.005005 337.000000,265.000000 336.997498,264.997498 
z"/>
<path fill="#FFFFFF" opacity="1.000000" stroke="none" 
	d="
M25.002354,313.002502 
	C25.003839,305.314484 25.002575,297.623932 25.003206,289.464203 
	C25.005102,288.994995 24.999603,289.000000 25.466438,289.000641 
	C33.623882,288.999207 41.314487,288.997101 49.003197,289.464203 
	C48.999157,297.623932 48.997009,305.314484 48.997231,313.002502 
	C48.999596,313.000000 49.005096,312.994995 48.536144,312.996643 
	C40.376415,312.997162 32.685635,312.996094 24.994858,312.994995 
	C24.994858,312.994995 24.999603,313.000000 25.002354,313.002502 
z"/>
<path fill="#EEEEEE" opacity="1.000000" stroke="none" 
	d="
M25.002333,193.002380 
	C25.003700,185.314514 25.002432,177.623901 25.003065,169.464081 
	C25.004969,168.994873 24.999702,169.000366 25.466339,169.001160 
	C32.319691,169.018066 38.706409,169.034195 45.055351,169.513763 
	C45.034744,177.628815 45.051910,185.280426 44.596802,192.953537 
	C37.747990,192.981705 31.371454,192.988358 24.994919,192.995026 
	C24.994919,192.995026 24.999697,192.999619 25.002333,193.002380 
z"/>
<path fill="#FFFFFF" opacity="1.000000" stroke="none" 
	d="
M25.002354,265.002502 
	C25.003839,257.314423 25.002575,249.623856 25.003204,241.464081 
	C25.005102,240.994873 24.999659,241.000381 25.466457,241.000839 
	C33.306156,240.976929 40.679062,240.952560 48.306694,241.145569 
	C48.730309,242.225540 48.899189,243.088120 49.046631,244.421875 
	C49.018665,251.597015 49.012142,258.300995 48.536636,265.003357 
	C40.376720,264.999481 32.685791,264.997223 24.994858,264.994995 
	C24.994858,264.994995 24.999603,265.000000 25.002354,265.002502 
z"/>
<path fill="#FFFFFF" opacity="1.000000" stroke="none" 
	d="
M336.997498,192.997650 
	C336.996216,200.685486 336.997467,208.376099 336.996857,216.535919 
	C336.994995,217.005127 337.000000,216.999573 336.533295,216.999146 
	C328.375824,217.000824 320.685059,217.002945 312.996124,216.535858 
	C312.997437,208.376541 312.996887,200.686447 313.465210,192.997742 
	C321.624390,193.001144 329.314697,193.003143 337.005005,193.005142 
	C337.005005,193.005142 337.000000,193.000427 336.997498,192.997650 
z"/>
<path fill="#EEEEEE" opacity="1.000000" stroke="none" 
	d="
M337.003174,192.535980 
	C329.314697,193.003143 321.624390,193.001144 313.466095,192.998871 
	C312.998108,192.998627 312.990173,192.992401 312.992371,192.540054 
	C312.976227,189.336655 312.957916,186.585602 312.967224,183.517761 
	C313.616119,182.132462 314.237427,181.063934 315.232208,179.946533 
	C317.343323,178.450714 319.080933,177.003769 320.157684,176.107117 
	C319.360046,173.475006 318.682465,171.239029 318.472839,169.001160 
	C324.962219,169.001205 330.983582,169.003159 337.004974,169.005112 
	C337.004974,169.005112 337.000000,169.000443 336.997498,168.997650 
	C336.997101,176.685532 336.999207,184.376175 337.003174,192.535980 
z"/>
<path fill="#EEEEEE" opacity="1.000000" stroke="none" 
	d="
M48.051968,240.928192 
	C40.679062,240.952560 33.306156,240.976929 25.464056,241.003220 
	C24.997007,233.314529 24.999159,225.623901 25.003208,217.464081 
	C25.005104,216.994873 24.999678,217.000366 25.466276,217.001099 
	C32.294113,217.013168 38.655354,217.024490 45.012856,217.472656 
	C44.869904,220.222229 44.231522,222.641907 44.699081,224.824646 
	C45.576294,228.919769 42.680870,234.132050 48.233681,237.187286 
	C48.584583,237.933884 48.741623,238.472656 48.675171,239.178589 
	C48.318443,239.873245 48.185207,240.400726 48.051968,240.928192 
z"/>
<path fill="#EEEEEE" opacity="1.000000" stroke="none" 
	d="
M312.994293,217.005066 
	C320.685059,217.002945 328.375824,217.000824 336.535797,216.996780 
	C337.002899,224.685471 337.000793,232.376099 336.996857,240.535919 
	C336.994995,241.005127 337.000000,240.999573 336.533295,240.999146 
	C328.376068,241.000839 320.685516,241.002975 312.996857,240.535919 
	C313.000763,232.375885 313.002838,224.685043 313.002686,216.996948 
	C313.000458,216.999680 312.994293,217.005066 312.994293,217.005066 
z"/>
<path fill="#FFFFFF" opacity="1.000000" stroke="none" 
	d="
M312.994995,241.005127 
	C320.685516,241.002975 328.376068,241.000839 336.535797,240.996780 
	C337.003754,248.685440 337.002502,256.376007 337.003143,264.535797 
	C329.314301,265.002747 321.623596,265.000488 313.466431,264.999146 
	C313.000000,265.000000 313.005005,265.005005 313.003143,264.535797 
	C313.002502,256.376007 313.003754,248.685440 313.002502,240.997223 
	C313.000000,240.999573 312.994995,241.005127 312.994995,241.005127 
z"/>
<path fill="#EEEEEE" opacity="1.000000" stroke="none" 
	d="
M24.996748,265.464142 
	C32.685791,264.997223 40.376720,264.999481 48.533623,265.000671 
	C48.999588,264.999634 48.994907,264.994324 48.996777,265.463531 
	C48.997383,273.623505 48.996124,281.314240 48.997231,289.002502 
	C48.999596,289.000000 49.005096,288.994995 49.005096,288.994995 
	C41.314487,288.997101 33.623882,288.999207 25.464066,289.003143 
	C24.996117,281.314423 24.997377,273.623871 24.996748,265.464142 
z"/>
<path fill="#FEFFFF" opacity="1.000000" stroke="none" 
	d="
M45.016590,217.035812 
	C38.655354,217.024490 32.294113,217.013168 25.463898,217.003479 
	C24.995996,209.314529 24.997072,201.623978 24.996532,193.464218 
	C31.371454,192.988358 37.747990,192.981705 44.582176,192.938797 
	C45.039822,192.902542 45.080917,192.893631 45.167328,193.133240 
	C45.516541,193.578033 45.779339,193.783203 46.097656,194.455048 
	C46.101963,202.281754 46.050755,209.641754 45.753670,217.006485 
	C45.507801,217.011200 45.016590,217.035812 45.016590,217.035812 
z"/>
<path fill="#FFFFFF" opacity="1.000000" stroke="none" 
	d="
M169.002350,336.997498 
	C161.314514,336.996246 153.623901,336.997498 145.464081,336.996857 
	C144.994873,336.994995 145.000427,337.000000 145.000854,336.533295 
	C144.999207,328.375610 144.997116,320.684662 145.464233,312.995514 
	C153.623932,312.996124 161.314453,312.994904 169.003387,313.462708 
	C168.999466,321.622833 168.997162,329.313934 168.994858,337.005005 
	C168.994858,337.005005 168.999573,337.000000 169.002350,336.997498 
z"/>
<path fill="#EEEEEE" opacity="1.000000" stroke="none" 
	d="
M337.003174,336.535858 
	C329.314484,337.002899 321.623932,337.000824 313.464203,336.996857 
	C312.994995,336.994995 313.000000,337.000000 313.000641,336.533295 
	C312.999176,328.376068 312.997070,320.685516 313.464203,312.996857 
	C321.623932,313.000824 329.314484,313.002899 337.005005,313.005005 
	C337.005005,313.005005 337.000000,313.000000 336.997498,312.997498 
	C336.997101,320.685577 336.999207,328.376129 337.003174,336.535858 
z"/>
<path fill="#EEEEEE" opacity="1.000000" stroke="none" 
	d="
M24.996748,313.464142 
	C32.685635,312.996094 40.376415,312.997162 48.534248,313.465820 
	C48.999153,321.623932 48.997005,329.314484 48.994862,337.005005 
	C48.994862,337.005005 48.999580,337.000000 49.002342,336.997498 
	C41.314495,336.997101 33.623886,336.999207 25.464066,337.003143 
	C24.996119,329.314423 24.997379,321.623871 24.996748,313.464142 
z"/>
<path fill="#FFFFFF" opacity="1.000000" stroke="none" 
	d="
M49.464016,337.003174 
	C48.997005,329.314484 48.999153,321.623932 49.003197,313.464203 
	C49.005096,312.994995 48.999596,313.000000 49.466438,313.000641 
	C57.623890,312.999176 65.314499,312.997101 73.003479,313.463928 
	C72.999512,321.623596 72.997177,329.314301 72.994850,337.005005 
	C72.994850,337.005005 72.999573,337.000000 73.002342,336.997498 
	C65.314461,336.997101 57.623817,336.999237 49.464016,337.003174 
z"/>
<path fill="#EEEEEE" opacity="1.000000" stroke="none" 
	d="
M73.464005,337.003174 
	C72.997177,329.314301 72.999512,321.623596 73.000717,313.466431 
	C72.999588,313.000000 72.994850,313.005005 73.464005,313.003174 
	C81.623817,312.999237 89.314461,312.997131 97.003479,313.463928 
	C96.999512,321.623596 96.997177,329.314301 96.994850,337.005005 
	C96.994850,337.005005 96.999573,337.000000 97.002342,336.997498 
	C89.314461,336.997131 81.623817,336.999237 73.464005,337.003174 
z"/>
<path fill="#FFFFFF" opacity="1.000000" stroke="none" 
	d="
M97.464005,337.003174 
	C96.997177,329.314301 96.999512,321.623596 97.000702,313.466431 
	C96.999573,313.000000 96.994850,313.005005 97.464005,313.003174 
	C105.623817,312.999237 113.314461,312.997101 121.003479,313.463928 
	C120.999512,321.623596 120.997185,329.314301 120.994850,337.005005 
	C120.994850,337.005005 120.999573,337.000000 121.002342,336.997498 
	C113.314461,336.997101 105.623817,336.999237 97.464005,337.003174 
z"/>
<path fill="#EEEEEE" opacity="1.000000" stroke="none" 
	d="
M121.464005,337.003174 
	C120.997185,329.314301 120.999512,321.623596 121.000702,313.466431 
	C120.999573,313.000000 120.994850,313.005005 121.464005,313.003174 
	C129.624237,313.002533 137.315308,313.003693 145.003326,313.002747 
	C145.000290,313.000610 144.995041,312.993683 144.995041,312.993683 
	C144.997116,320.684662 144.999207,328.375610 145.003220,336.535797 
	C137.314484,337.003784 129.623825,337.002563 121.464005,337.003174 
z"/>
<path fill="#EEEEEE" opacity="1.000000" stroke="none" 
	d="
M169.464020,337.003174 
	C168.997162,329.313934 168.999466,321.622833 169.000748,313.466187 
	C168.999710,313.000580 168.993774,313.004761 169.463043,313.003479 
	C177.623230,313.000183 185.314163,312.998230 193.003464,313.465149 
	C192.999512,321.624359 192.997192,329.314667 192.994858,337.005005 
	C192.994858,337.005005 192.999557,337.000000 193.002350,336.997498 
	C185.314468,336.997101 177.623825,336.999237 169.464020,337.003174 
z"/>
<path fill="#FFFFFF" opacity="1.000000" stroke="none" 
	d="
M193.464020,337.003174 
	C192.997192,329.314667 192.999512,321.624359 193.000702,313.467010 
	C192.999588,313.000000 192.996002,313.004883 193.465042,313.003082 
	C201.624435,312.999207 209.314774,312.997101 217.003479,313.463928 
	C216.999496,321.623596 216.997177,329.314301 216.994858,337.005005 
	C216.994858,337.005005 216.999557,337.000000 217.002350,336.997498 
	C209.314468,336.997101 201.623825,336.999207 193.464020,337.003174 
z"/>
<path fill="#EEEEEE" opacity="1.000000" stroke="none" 
	d="
M217.464020,337.003174 
	C216.997177,329.314301 216.999496,321.623596 217.000702,313.466431 
	C216.999557,313.000000 216.994858,313.005005 217.464020,313.003174 
	C225.623825,312.999237 233.314468,312.997131 241.003479,313.463928 
	C240.999496,321.623596 240.997177,329.314301 240.994858,337.005005 
	C240.994858,337.005005 240.999557,337.000000 241.002350,336.997498 
	C233.314468,336.997131 225.623825,336.999237 217.464020,337.003174 
z"/>
<path fill="#FFFFFF" opacity="1.000000" stroke="none" 
	d="
M241.464020,337.003174 
	C240.997177,329.314301 240.999496,321.623596 241.000702,313.466431 
	C240.999557,313.000000 240.994858,313.005005 241.464020,313.003174 
	C249.623779,312.999237 257.314392,312.997101 265.003357,313.463928 
	C264.999481,321.623596 264.997223,329.314301 264.994995,337.005005 
	C264.994995,337.005005 265.000000,337.000000 265.002502,336.997498 
	C257.314392,336.997101 249.623779,336.999237 241.464020,337.003174 
z"/>
<path fill="#EEEEEE" opacity="1.000000" stroke="none" 
	d="
M265.464111,337.003174 
	C264.997223,329.314301 264.999481,321.623596 265.000854,313.466431 
	C265.000000,313.000000 264.994995,313.005005 265.464142,313.003174 
	C273.623871,312.999207 281.314423,312.997101 289.003357,313.463928 
	C288.999481,321.623596 288.997223,329.314301 288.994995,337.005005 
	C288.994995,337.005005 289.000000,337.000000 289.002502,336.997498 
	C281.314423,336.997101 273.623871,336.999207 265.464111,337.003174 
z"/>
<path fill="#FFFFFF" opacity="1.000000" stroke="none" 
	d="
M289.464142,337.003174 
	C288.997223,329.314301 288.999481,321.623596 289.000854,313.466431 
	C289.000000,313.000000 288.994995,313.005005 289.464142,313.003174 
	C297.623871,313.002563 305.314423,313.003784 313.002502,313.002502 
	C313.000000,313.000000 312.994995,312.994995 312.994995,312.994995 
	C312.997070,320.685516 312.999176,328.376068 313.003143,336.535797 
	C305.314423,337.003784 297.623871,337.002563 289.464142,337.003174 
z"/>
<path fill="#FFFFFF" opacity="1.000000" stroke="none" 
	d="
M337.003174,312.535858 
	C329.314484,313.002899 321.623932,313.000824 313.464203,312.996857 
	C312.994995,312.994995 313.000000,313.000000 313.000641,312.533295 
	C313.002502,304.376068 313.003754,296.685516 313.002502,288.997498 
	C313.000000,289.000000 312.994995,289.005005 312.994995,289.005005 
	C320.685516,289.002930 328.376068,289.000824 336.535797,288.996857 
	C337.003784,296.685577 337.002563,304.376129 337.003174,312.535858 
z"/>
<path fill="#EEEEEE" opacity="1.000000" stroke="none" 
	d="
M312.997498,25.002354 
	C320.685516,25.002964 328.376068,25.000824 336.535797,24.996769 
	C337.002899,32.685471 337.000793,40.376087 336.996857,48.535904 
	C336.994995,49.005112 337.000000,48.999596 336.533295,48.999138 
	C328.376068,49.000843 320.685516,49.002998 312.996857,48.535950 
	C313.000793,40.376110 313.002899,32.685486 313.005005,24.994858 
	C313.005005,24.994858 313.000000,24.999603 312.997498,25.002354 
z"/>
<path fill="#FFFFFF" opacity="1.000000" stroke="none" 
	d="
M25.002378,73.002380 
	C25.003839,65.314514 25.002573,57.623905 25.003204,49.464088 
	C25.005102,48.994884 24.999653,49.000351 25.466463,49.000832 
	C33.623882,49.002579 41.314487,49.003845 49.002373,49.002380 
	C48.999649,48.999649 48.994862,48.994862 48.996750,49.464016 
	C49.000790,57.623821 49.002945,65.314468 48.536144,73.003479 
	C40.376415,72.999512 32.685635,72.997177 24.994858,72.994850 
	C24.994858,72.994850 24.999653,72.999641 25.002378,73.002380 
z"/>
<path fill="#FFFFFF" opacity="1.000000" stroke="none" 
	d="
M312.994995,49.005157 
	C320.685516,49.002998 328.376068,49.000843 336.535797,48.996773 
	C337.002899,56.685478 337.000793,64.376091 336.996857,72.535927 
	C336.994995,73.005142 337.000000,72.999908 336.532776,73.000992 
	C328.373260,73.002838 320.680939,73.003601 312.989319,72.535263 
	C312.993744,64.377129 312.997498,56.688107 313.000610,48.999619 
	C313.000000,49.000156 312.994995,49.005157 312.994995,49.005157 
z"/>
<path fill="#EEEEEE" opacity="1.000000" stroke="none" 
	d="
M24.996746,73.464005 
	C32.685635,72.997177 40.376415,72.999512 48.533413,73.000732 
	C48.999634,72.999619 48.994862,72.994850 48.996750,73.464005 
	C49.000790,81.623817 49.002945,89.314468 48.536144,97.003479 
	C40.376415,96.999512 32.685635,96.997177 24.994858,96.994850 
	C24.994858,96.994850 24.999640,96.999619 25.002371,97.002365 
	C25.002947,89.314468 25.000792,81.623817 24.996746,73.464005 
z"/>
<path fill="#FFFFFE" opacity="1.000000" stroke="none" 
	d="
M337.003479,168.535950 
	C330.983582,169.003159 324.962219,169.001205 318.192078,168.990433 
	C317.071442,168.967819 316.699585,168.954010 316.226624,168.486023 
	C316.204712,160.375565 316.283905,152.719315 316.635773,145.054352 
	C317.273926,145.028992 317.639404,145.012360 318.472839,144.997620 
	C324.962219,145.001175 330.983582,145.002823 337.004974,145.004471 
	C337.004974,145.004471 337.000000,145.000412 336.997711,144.997650 
	C336.997620,152.685516 336.999786,160.376160 337.003479,168.535950 
z"/>
<path fill="#F0EEE6" opacity="1.000000" stroke="none" 
	d="
M312.988647,73.004372 
	C320.680939,73.003601 328.373260,73.002838 336.534607,72.999161 
	C337.000641,80.685974 336.997650,88.375710 336.993042,96.534470 
	C336.991455,97.003487 337.000824,96.999626 336.533203,96.996902 
	C329.480133,97.008385 322.894745,97.022583 316.156464,96.659332 
	C314.973602,91.941620 313.943604,87.601364 312.941071,82.781670 
	C312.974701,79.201996 312.980865,76.101753 312.992706,73.000549 
	C312.998383,72.999580 312.988647,73.004372 312.988647,73.004372 
z"/>
<path fill="#FFFFFF" opacity="1.000000" stroke="none" 
	d="
M24.996746,97.464005 
	C32.685635,96.997177 40.376415,96.999512 48.533413,97.000732 
	C48.999634,96.999619 48.994862,96.994850 48.996750,97.464005 
	C49.000751,105.623886 49.002865,113.314598 48.536034,121.003738 
	C40.376347,120.999718 32.685604,120.997284 24.994860,120.994850 
	C24.994860,120.994850 24.999640,120.999619 25.002371,121.002365 
	C25.002947,113.314468 25.000792,105.623817 24.996746,97.464005 
z"/>
<path fill="#EEEEEE" opacity="1.000000" stroke="none" 
	d="
M264.997498,25.002354 
	C272.685516,25.003839 280.376068,25.002575 288.535797,25.003206 
	C289.005005,25.005102 289.000000,24.999603 288.999359,25.466438 
	C288.999084,33.626564 288.999420,41.319859 289.000488,49.005768 
	C289.001190,48.998390 289.013458,48.999176 288.543457,48.999481 
	C280.380646,49.001553 272.687836,49.003326 264.996613,48.536144 
	C265.000488,40.376415 265.002716,32.685635 265.005005,24.994858 
	C265.005005,24.994858 265.000000,24.999603 264.997498,25.002354 
z"/>
<path fill="#EEEEEE" opacity="1.000000" stroke="none" 
	d="
M49.005096,49.005116 
	C41.314487,49.003845 33.623882,49.002579 25.464066,49.003227 
	C24.996134,41.314518 24.997408,33.623894 24.996769,25.464066 
	C32.685474,24.997007 40.376087,24.999159 48.535912,25.003204 
	C49.005116,25.005102 48.999649,24.999653 48.999168,25.466463 
	C49.000824,33.623886 49.002960,41.314503 49.005096,49.005116 
z"/>
<path fill="#FFFFFF" opacity="1.000000" stroke="none" 
	d="
M49.002373,49.002380 
	C49.002960,41.314503 49.000824,33.623886 48.996773,25.464066 
	C56.685474,24.997009 64.376091,24.999159 72.535912,25.003206 
	C73.005119,25.005102 72.999641,24.999653 72.999161,25.466463 
	C73.000832,33.623882 73.002975,41.314487 72.535912,49.003197 
	C64.376091,48.999153 56.685474,48.997005 48.994862,48.994862 
	C48.994862,48.994862 48.999649,48.999649 49.002373,49.002380 
z"/>
<path fill="#EEEEEE" opacity="1.000000" stroke="none" 
	d="
M73.005119,49.005096 
	C73.002975,41.314487 73.000832,33.623882 72.996765,25.464066 
	C80.685471,24.997009 88.376083,24.999159 96.535912,25.003206 
	C97.005119,25.005102 96.999641,24.999653 96.999161,25.466463 
	C97.000832,33.623882 97.002975,41.314487 96.535912,49.003197 
	C88.376083,48.999153 80.685471,48.997005 72.997246,48.997253 
	C72.999641,48.999649 73.005119,49.005096 73.005119,49.005096 
z"/>
<path fill="#FFFFFF" opacity="1.000000" stroke="none" 
	d="
M97.005119,49.005096 
	C97.002975,41.314487 97.000832,33.623882 96.996765,25.464066 
	C104.685471,24.997009 112.376083,24.999161 120.535912,25.003206 
	C121.005119,25.005102 120.999641,24.999653 120.999161,25.466463 
	C121.000832,33.623882 121.002975,41.314487 120.535912,49.003197 
	C112.376083,48.999157 104.685471,48.997009 96.997246,48.997253 
	C96.999641,48.999649 97.005119,49.005096 97.005119,49.005096 
z"/>
<path fill="#EEEEEE" opacity="1.000000" stroke="none" 
	d="
M121.005119,49.005096 
	C121.002975,41.314487 121.000832,33.623882 120.996765,25.464066 
	C128.685471,24.997007 136.376083,24.999159 144.535919,25.003204 
	C145.005127,25.005102 144.999619,24.999659 144.999146,25.466465 
	C145.000839,33.623753 145.002991,41.314232 144.535919,49.002792 
	C136.376099,48.998875 128.685501,48.996880 120.997269,48.997269 
	C120.999649,48.999657 121.005119,49.005096 121.005119,49.005096 
z"/>
<path fill="#FFFFFF" opacity="1.000000" stroke="none" 
	d="
M145.005127,49.004711 
	C145.002991,41.314232 145.000839,33.623753 144.996765,25.464066 
	C152.685471,24.997007 160.376099,24.999159 168.535919,25.003204 
	C169.005127,25.005102 168.999619,24.999659 168.999146,25.466465 
	C169.000839,33.623970 169.002975,41.314671 168.535889,49.003487 
	C160.376221,48.999359 152.685745,48.997112 144.997452,48.997299 
	C144.999619,48.999733 145.005127,49.004711 145.005127,49.004711 
z"/>
<path fill="#EEEEEE" opacity="1.000000" stroke="none" 
	d="
M169.005112,49.005367 
	C169.002975,41.314671 169.000839,33.623970 168.996765,25.464066 
	C176.685471,24.997009 184.376099,24.999159 192.535919,25.003204 
	C193.005127,25.005102 192.999619,24.999659 192.999146,25.466465 
	C193.000839,33.623882 193.002991,41.314487 192.535919,49.003197 
	C184.376007,48.999161 176.685318,48.997025 168.997131,48.997261 
	C168.999634,48.999634 169.005112,49.005367 169.005112,49.005367 
z"/>
<path fill="#FFFFFF" opacity="1.000000" stroke="none" 
	d="
M193.005127,49.005096 
	C193.002991,41.314487 193.000839,33.623882 192.996765,25.464066 
	C200.685471,24.997009 208.376099,24.999159 216.535919,25.003204 
	C217.005127,25.005102 216.999619,24.999659 216.999146,25.466465 
	C217.000839,33.623882 217.002991,41.314487 216.535919,49.003197 
	C208.376099,48.999153 200.685471,48.997009 192.997238,48.997257 
	C192.999619,48.999653 193.005127,49.005096 193.005127,49.005096 
z"/>
<path fill="#EEEEEE" opacity="1.000000" stroke="none" 
	d="
M217.005127,49.005096 
	C217.002991,41.314487 217.000839,33.623882 216.996765,25.464066 
	C224.685471,24.997009 232.376099,24.999159 240.535919,25.003204 
	C241.005127,25.005102 240.999619,24.999659 240.999146,25.466465 
	C241.000839,33.623882 241.002991,41.314487 240.535919,49.003197 
	C232.376099,48.999153 224.685471,48.997009 216.997238,48.997257 
	C216.999619,48.999653 217.005127,49.005096 217.005127,49.005096 
z"/>
<path fill="#FFFFFF" opacity="1.000000" stroke="none" 
	d="
M241.005127,49.005096 
	C241.002991,41.314487 241.000839,33.623882 240.996765,25.464066 
	C248.685440,24.996132 256.376007,24.997408 264.535767,24.996769 
	C265.002716,32.685635 265.000488,40.376415 264.999115,48.533386 
	C265.000000,48.999580 265.005005,48.994862 264.535797,48.996773 
	C256.376007,48.997410 248.685440,48.996136 240.997238,48.997257 
	C240.999619,48.999653 241.005127,49.005096 241.005127,49.005096 
z"/>
<path fill="#FFFFFF" opacity="1.000000" stroke="none" 
	d="
M288.999756,49.013149 
	C288.999420,41.319859 288.999084,33.626564 288.996857,25.464066 
	C296.685516,24.996132 304.376068,24.997406 312.535797,24.996769 
	C313.002899,32.685486 313.000793,40.376110 312.996857,48.535950 
	C312.994995,49.005157 313.000000,49.000156 312.531860,49.003662 
	C304.375702,49.009159 296.687744,49.011154 288.999756,49.013149 
z"/>
<path fill="#EDEEEE" opacity="1.000000" stroke="none" 
	d="
M24.996883,121.464005 
	C32.685604,120.997284 40.376347,120.999718 48.533619,121.001129 
	C49.000149,121.000114 48.997601,120.998253 48.996696,121.466843 
	C49.003544,128.312515 49.011295,134.689590 48.997929,141.328018 
	C48.899933,141.746368 48.823055,141.903351 48.576908,142.197403 
	C48.215378,142.561310 48.087978,142.820099 48.051407,143.450317 
	C47.782845,144.625870 47.488323,145.461884 46.909615,145.963333 
	C39.415295,145.417389 32.205162,145.206024 24.995031,144.994659 
	C24.995031,144.994659 24.999636,144.999634 25.002525,145.002380 
	C25.003244,137.314453 25.001074,129.623810 24.996883,121.464005 
z"/>
<path fill="#FFFFFE" opacity="1.000000" stroke="none" 
	d="
M316.309326,97.036781 
	C322.894745,97.022583 329.480133,97.008385 336.534363,96.992783 
	C337.001892,104.683159 337.000641,112.374931 336.997406,120.535919 
	C336.995422,121.005135 337.000000,120.999619 336.533661,120.999481 
	C330.046509,121.001038 324.025696,121.002724 317.729889,120.993111 
	C317.090912,120.966797 316.726898,120.951790 316.251038,120.485184 
	C316.195892,112.367989 316.252594,104.702385 316.309326,97.036781 
z"/>
<path fill="#EEEEEE" opacity="1.000000" stroke="none" 
	d="
M318.004883,121.004410 
	C324.025696,121.002724 330.046509,121.001038 336.536133,120.997437 
	C337.003754,128.685745 337.002533,136.375977 337.003143,144.535339 
	C330.983582,145.002823 324.962219,145.001175 318.471497,144.529480 
	C318.003082,136.374435 318.003998,128.689423 318.004883,121.004410 
z"/>
<path fill="#FEFEFE" opacity="1.000000" stroke="none" 
	d="
M24.996462,145.463837 
	C32.205162,145.206024 39.415295,145.417389 46.839836,146.374954 
	C46.720901,154.419388 46.387554,161.717621 45.812981,168.997864 
	C45.571754,168.979858 45.093124,169.050323 45.093124,169.050323 
	C38.706409,169.034195 32.319691,169.018066 25.463961,169.003433 
	C24.995930,161.314285 24.996910,153.623642 24.996462,145.463837 
z"/>
<path fill="#FFFFFF" opacity="1.000000" stroke="none" 
	d="
M312.997498,264.997498 
	C312.996246,272.685516 312.997498,280.376068 312.996857,288.535797 
	C312.994995,289.005005 313.000000,289.000000 312.533295,288.999359 
	C304.376068,288.997498 296.685516,288.996246 288.997498,288.997498 
	C289.000000,289.000000 289.005005,289.005005 289.003174,288.535858 
	C288.999237,280.376129 288.997101,272.685577 289.463928,264.996643 
	C297.623596,265.000488 305.314301,265.002747 313.005005,265.005005 
	C313.005005,265.005005 313.000000,265.000000 312.997498,264.997498 
z"/>
<path fill="#EEEEEE" opacity="1.000000" stroke="none" 
	d="
M73.002350,312.997498 
	C65.314499,312.997101 57.623890,312.999176 49.464069,313.003143 
	C48.997009,305.314484 48.999157,297.623932 49.003197,289.464203 
	C49.005096,288.994995 48.999596,289.000000 49.466438,289.000641 
	C57.623882,288.999176 65.314491,288.997101 73.003204,289.464203 
	C72.999153,297.623932 72.997002,305.314484 72.994850,313.005005 
	C72.994850,313.005005 72.999588,313.000000 73.002350,312.997498 
z"/>
<path fill="#7E94BA" opacity="1.000000" stroke="none" 
	d="
M45.055351,169.513763 
	C45.093124,169.050323 45.571754,168.979858 46.113289,169.285416 
	C46.519051,177.393555 46.383278,185.196121 45.955223,192.979492 
	C45.468933,192.938065 45.274925,192.915848 45.080917,192.893631 
	C45.080917,192.893631 45.039822,192.902542 45.054451,192.917282 
	C45.051910,185.280426 45.034744,177.628815 45.055351,169.513763 
z"/>
<path fill="#EDEEEE" opacity="1.000000" stroke="none" 
	d="
M49.002602,265.002319 
	C49.012142,258.300995 49.018665,251.597015 49.370071,244.483444 
	C51.114990,245.058319 52.515026,246.042786 53.946449,247.026123 
	C53.977833,247.024979 53.957241,247.083603 53.992912,247.389404 
	C54.464069,248.044632 54.899548,248.394043 55.223183,248.725098 
	C55.111340,248.706726 55.337563,248.692307 55.261238,249.068298 
	C56.854774,250.569672 58.524643,251.695068 60.108604,252.881378 
	C60.022701,252.942322 60.166855,252.788727 60.152687,253.175049 
	C62.612591,254.620621 65.086655,255.679855 67.915848,256.742401 
	C69.163567,257.032104 70.056160,257.318512 71.038681,257.860352 
	C71.754990,258.413818 72.381371,258.711792 73.005577,259.437744 
	C73.003357,261.578918 73.003319,263.292084 72.534447,265.003113 
	C64.375381,264.998779 56.685143,264.996552 48.994907,264.994324 
	C48.994907,264.994324 48.999588,264.999634 49.002602,265.002319 
z"/>
<path fill="#D4E1F4" opacity="1.000000" stroke="none" 
	d="
M53.915062,247.027252 
	C52.515026,246.042786 51.114990,245.058319 49.391510,244.012268 
	C48.899189,243.088120 48.730309,242.225540 48.306698,241.145569 
	C48.185207,240.400726 48.318443,239.873245 48.936028,239.390656 
	C50.918602,241.966110 52.416832,244.496674 53.915062,247.027252 
z"/>
<path fill="#EEEEED" opacity="1.000000" stroke="none" 
	d="
M312.997223,192.997482 
	C312.996887,200.686447 312.997437,208.376541 312.996124,216.535858 
	C312.994293,217.005066 313.000458,216.999680 312.533508,216.998840 
	C304.376312,217.000336 296.686066,217.002670 288.997925,216.537933 
	C288.988708,211.126984 288.977386,206.183105 289.331543,201.118622 
	C295.082886,198.313904 300.468719,195.629807 306.304565,192.964569 
	C308.833099,192.986420 310.911652,192.989410 312.990173,192.992401 
	C312.990173,192.992401 312.998108,192.998627 312.997223,192.997482 
z"/>
<path fill="#F7CD55" opacity="1.000000" stroke="none" 
	d="
M305.854584,192.945709 
	C300.468719,195.629807 295.082886,198.313904 288.867035,201.081970 
	C280.392303,201.332611 272.747589,201.499283 264.664337,201.505890 
	C253.132034,199.408783 246.324295,206.815338 238.633301,213.027191 
	C237.219116,213.948044 236.103973,214.790085 234.625854,215.699509 
	C222.160126,223.645248 210.057404,231.523575 196.827225,240.135834 
	C199.252441,228.343994 201.379776,218.127045 203.447006,207.897964 
	C204.544846,202.465668 203.666168,201.383499 197.981735,201.358887 
	C185.816727,201.306259 173.650436,201.422104 161.486679,201.287964 
	C158.022568,201.249771 154.423843,201.079010 151.129303,200.128601 
	C136.525085,195.915497 127.304665,183.249619 127.166298,167.594330 
	C127.033798,152.603531 126.982414,137.612000 126.892456,122.426163 
	C126.889542,122.231544 126.772469,121.857391 127.070084,121.585487 
	C127.497139,119.513542 127.723854,117.714317 127.738823,115.913322 
	C127.796585,108.962090 127.727875,102.009544 127.816811,95.058907 
	C127.930656,86.161903 133.533920,79.851723 138.498108,73.128983 
	C138.679855,73.089180 138.985703,72.877243 139.296158,72.864281 
	C140.145523,72.281181 140.684418,71.711044 141.531631,71.075775 
	C142.956924,70.149803 144.073914,69.288963 145.544189,68.366814 
	C146.590088,68.123672 147.282700,67.941849 148.298676,67.803833 
	C149.476639,67.346001 150.331207,66.844353 151.640747,66.300835 
	C157.744110,65.973228 163.392502,65.687492 169.490204,65.538101 
	C177.601334,65.584641 185.263184,65.494827 193.382019,65.548203 
	C201.572266,65.593811 209.305557,65.496239 217.488037,65.536110 
	C225.599838,65.584038 233.262436,65.494530 241.382004,65.548203 
	C249.584564,65.595955 257.330170,65.500526 265.520691,65.532761 
	C273.655029,65.707504 281.344360,65.754585 289.278717,66.066711 
	C294.645081,68.566200 299.766479,70.800652 304.972595,73.370178 
	C307.676117,76.890533 310.294861,80.075821 312.913605,83.261108 
	C313.943604,87.601364 314.973602,91.941620 316.156433,96.659332 
	C316.252594,104.702385 316.195892,112.367989 316.125061,120.946823 
	C316.194946,129.594391 316.279022,137.328720 316.363098,145.063065 
	C316.283905,152.719315 316.204712,160.375565 316.094421,168.890137 
	C315.661804,173.164124 315.260254,176.579758 314.858704,179.995392 
	C314.237427,181.063934 313.616119,182.132462 312.676239,183.694427 
	C310.189972,187.107162 308.022278,190.026443 305.854584,192.945709 
z"/>
<path fill="#FDFAE5" opacity="1.000000" stroke="none" 
	d="
M306.304565,192.964569 
	C308.022278,190.026443 310.189972,187.107162 312.648621,184.011215 
	C312.957916,186.585602 312.976227,189.336655 312.992371,192.540054 
	C310.911652,192.989410 308.833099,192.986420 306.304565,192.964569 
z"/>
<path fill="#F0EEE6" opacity="1.000000" stroke="none" 
	d="
M315.232239,179.946533 
	C315.260254,176.579758 315.661804,173.164124 316.195526,169.344345 
	C316.699585,168.954010 317.071442,168.967819 317.724121,168.992340 
	C318.682465,171.239029 319.360046,173.475006 320.157684,176.107117 
	C319.080933,177.003769 317.343323,178.450714 315.232239,179.946533 
z"/>
<path fill="#3C68AF" opacity="1.000000" stroke="none" 
	d="
M126.895370,122.620781 
	C126.982414,137.612000 127.033798,152.603531 127.166298,167.594330 
	C127.304665,183.249619 136.525085,195.915497 151.129303,200.128601 
	C154.423843,201.079010 158.022568,201.249771 161.486679,201.287964 
	C173.650436,201.422104 185.816727,201.306259 197.981735,201.358887 
	C203.666168,201.383499 204.544846,202.465668 203.447006,207.897964 
	C201.379776,218.127045 199.252441,228.343994 196.827225,240.135834 
	C210.057404,231.523575 222.160126,223.645248 234.639771,215.811005 
	C235.016708,215.855087 235.211578,215.967010 235.138184,216.429871 
	C233.972763,224.895767 232.880722,232.898804 231.513397,241.086411 
	C226.413849,246.001648 221.589584,250.732315 216.372971,255.535492 
	C208.309387,256.641083 200.638138,257.674164 192.521088,258.560669 
	C184.434616,258.465332 176.793945,258.516602 168.711670,258.426178 
	C167.127487,258.246033 165.984940,258.176117 164.842300,258.174255 
	C157.941772,258.163086 157.093765,259.354797 159.252350,266.404480 
	C161.072342,274.931274 162.873993,283.069763 164.695709,291.592529 
	C164.859833,293.410492 165.003876,294.844238 165.182159,296.618652 
	C158.217682,292.510193 151.667801,288.646362 145.069763,284.452301 
	C143.792358,283.296204 142.563126,282.470306 141.301468,281.634430 
	C141.269028,281.624451 141.314880,281.671326 141.207550,281.388458 
	C140.408493,280.721069 139.716751,280.336548 139.014252,279.977142 
	C139.003510,280.002228 139.048004,279.970459 138.872894,279.684814 
	C136.189148,277.856018 133.680481,276.312866 131.112335,274.803101 
	C131.052856,274.836487 131.189240,274.834625 131.063538,274.568237 
	C130.275055,273.908569 129.612289,273.515320 128.947266,273.079834 
	C128.945023,273.037537 128.863754,273.061371 128.692734,272.781128 
	C126.036713,270.958496 123.551712,269.416138 120.898392,267.606140 
	C119.291870,266.471222 117.853653,265.603973 116.256248,264.435486 
	C110.636383,258.990143 104.301186,256.891663 96.423264,258.503479 
	C88.314941,258.306824 80.652481,258.219940 72.785347,257.938232 
	C72.036713,257.697235 71.492737,257.651062 70.948761,257.604858 
	C70.056160,257.318512 69.163567,257.032104 67.696297,256.466248 
	C64.803368,255.054077 62.485115,253.921402 60.166855,252.788727 
	C60.166855,252.788727 60.022701,252.942322 59.977585,252.587982 
	C58.400833,251.053192 56.869198,249.872742 55.337563,248.692307 
	C55.337563,248.692307 55.111340,248.706726 55.162964,248.445389 
	C54.795471,247.817230 54.376358,247.450409 53.957245,247.083603 
	C53.957241,247.083603 53.977833,247.024979 53.946449,247.026123 
	C52.416832,244.496674 50.918602,241.966110 49.159515,239.223480 
	C48.741623,238.472656 48.584583,237.933884 48.230427,236.802414 
	C47.729881,234.461105 47.426449,232.712524 47.394058,230.655212 
	C47.776482,228.532181 47.983032,226.717926 47.984802,224.903488 
	C48.007221,201.939850 47.986473,178.976181 48.010090,156.012558 
	C48.016109,150.158508 48.773628,144.550369 52.569637,139.656357 
	C53.789265,138.083954 54.109184,135.813721 54.859352,133.873962 
	C54.877995,133.885193 54.852093,133.903015 55.215286,133.885849 
	C56.013103,133.126312 56.447723,132.383942 57.015820,131.334320 
	C62.426907,128.297745 67.704514,125.568443 73.450829,122.875137 
	C91.578156,122.814346 109.236763,122.717567 126.895370,122.620781 
z"/>
<path fill="#D4E1F4" opacity="1.000000" stroke="none" 
	d="
M47.123016,230.963928 
	C47.426449,232.712524 47.729881,234.461105 48.036568,236.594574 
	C42.680870,234.132050 45.576294,228.919769 44.699081,224.824646 
	C44.231522,222.641907 44.869904,220.222229 45.012856,217.472656 
	C45.016590,217.035812 45.507801,217.011200 45.847439,217.455292 
	C46.499058,222.254242 46.811039,226.609085 47.123016,230.963928 
z"/>
<path fill="#FFFFFF" opacity="1.000000" stroke="none" 
	d="
M288.995850,217.005020 
	C296.686066,217.002670 304.376312,217.000336 312.535706,216.996094 
	C313.002838,224.685043 313.000763,232.375885 312.996857,240.535919 
	C312.994995,241.005127 313.000000,240.999573 312.533295,240.999146 
	C304.376068,241.000839 296.685516,241.002975 288.996857,240.535919 
	C289.000793,232.376373 289.002869,224.686050 289.002472,216.997650 
	C289.000000,216.999588 288.995850,217.005020 288.995850,217.005020 
z"/>
<path fill="#EEEEEE" opacity="1.000000" stroke="none" 
	d="
M288.994995,241.005127 
	C296.685516,241.002975 304.376068,241.000839 312.535797,240.996780 
	C313.003754,248.685440 313.002502,256.376007 313.003143,264.535797 
	C305.314301,265.002747 297.623596,265.000488 289.466431,264.999146 
	C289.000000,265.000000 289.005005,265.005005 289.003143,264.535797 
	C289.002502,256.376007 289.003754,248.685440 289.002502,240.997223 
	C289.000000,240.999573 288.994995,241.005127 288.994995,241.005127 
z"/>
<path fill="#FFFFFF" opacity="1.000000" stroke="none" 
	d="
M48.996777,265.463531 
	C56.685143,264.996552 64.375381,264.998779 72.532700,265.000488 
	C72.999779,265.000000 72.994530,264.996338 72.996536,265.465393 
	C72.997314,273.624634 72.996078,281.314819 72.997223,289.002502 
	C72.999588,289.000000 73.005096,288.994995 73.005096,288.994995 
	C65.314491,288.997101 57.623882,288.999176 49.464069,289.003143 
	C48.996124,281.314240 48.997383,273.623505 48.996777,265.463531 
z"/>
<path fill="#4167A3" opacity="1.000000" stroke="none" 
	d="
M47.394058,230.655212 
	C46.811039,226.609085 46.499058,222.254242 46.093307,217.450592 
	C46.050755,209.641754 46.101963,202.281754 46.193474,194.216888 
	C46.238346,193.340942 46.242924,193.169830 46.247505,192.998703 
	C46.383278,185.196121 46.519051,177.393555 46.354515,169.303406 
	C46.387554,161.717621 46.720901,154.419388 47.124023,146.709534 
	C47.488323,145.461884 47.782845,144.625870 48.262291,143.344681 
	C48.739620,142.688446 48.839275,142.408722 48.746181,142.060349 
	C48.823055,141.903351 48.899933,141.746368 49.281578,141.145432 
	C51.337799,138.421906 53.089260,136.142319 54.840717,133.862732 
	C54.109184,135.813721 53.789265,138.083954 52.569637,139.656357 
	C48.773628,144.550369 48.016109,150.158508 48.010090,156.012558 
	C47.986473,178.976181 48.007221,201.939850 47.984802,224.903488 
	C47.983032,226.717926 47.776482,228.532181 47.394058,230.655212 
z"/>
<path fill="#D4E1F4" opacity="1.000000" stroke="none" 
	d="
M45.955219,192.979492 
	C46.242924,193.169830 46.238346,193.340942 46.137955,193.750214 
	C45.779339,193.783203 45.516541,193.578033 45.167328,193.133240 
	C45.274925,192.915848 45.468933,192.938065 45.955219,192.979492 
z"/>
<path fill="#ECEDEE" opacity="1.000000" stroke="none" 
	d="
M145.117935,284.782501 
	C151.667801,288.646362 158.217682,292.510193 165.182159,296.618652 
	C165.003876,294.844238 164.859833,293.410492 165.005966,291.391724 
	C166.530777,290.204498 167.765381,289.602234 168.997849,289.468628 
	C168.995056,297.626434 168.994415,305.315582 168.993774,313.004761 
	C168.993774,313.004761 168.999710,313.000580 169.002350,312.997131 
	C161.314453,312.994904 153.623932,312.996124 145.464233,312.995514 
	C144.995041,312.993683 145.000290,313.000610 145.001480,312.533539 
	C145.002136,305.785461 144.862686,299.500092 145.058746,293.225220 
	C145.159195,290.010010 144.111038,288.837524 140.827942,288.938141 
	C134.222610,289.140656 127.606621,288.995422 120.997513,288.996826 
	C120.999992,289.000000 121.006332,289.004883 121.004776,288.537506 
	C121.009247,283.045929 121.015282,278.021759 121.458015,272.998291 
	C124.217728,273.019836 126.540741,273.040619 128.863754,273.061401 
	C128.863754,273.061371 128.945023,273.037537 129.016724,273.399719 
	C129.788696,274.119507 130.488968,274.477081 131.189240,274.834625 
	C131.189240,274.834625 131.052856,274.836487 131.086060,275.177979 
	C133.762177,277.003143 136.405090,278.486786 139.048004,279.970459 
	C139.048004,279.970459 139.003510,280.002228 139.056015,280.324585 
	C139.843979,280.988403 140.579422,281.329865 141.314880,281.671326 
	C141.314880,281.671326 141.269028,281.624451 141.217621,282.018738 
	C141.824493,284.301849 141.729706,287.446564 145.117935,284.782501 
z"/>
<path fill="#FFFFFF" opacity="1.000000" stroke="none" 
	d="
M73.464005,313.003174 
	C72.997002,305.314484 72.999153,297.623932 73.003204,289.464203 
	C73.005096,288.994995 72.999588,289.000000 73.466431,289.000641 
	C81.623711,289.002502 89.314140,289.003723 97.002480,289.002502 
	C97.000381,289.000000 96.994865,288.995239 96.996506,289.464172 
	C96.997047,297.623749 96.995949,305.314362 96.994850,313.005005 
	C96.994850,313.005005 96.999573,313.000000 97.002342,312.997498 
	C89.314461,312.997131 81.623817,312.999237 73.464005,313.003174 
z"/>
<path fill="#EEEEEE" opacity="1.000000" stroke="none" 
	d="
M97.464005,313.003174 
	C96.995949,305.314362 96.997047,297.623749 97.465721,289.466187 
	C105.624306,289.001129 113.315315,289.003021 121.006332,289.004883 
	C121.006332,289.004883 120.999992,289.000000 120.999359,289.466187 
	C120.997437,297.623260 120.996147,305.314117 120.994850,313.005005 
	C120.994850,313.005005 120.999573,313.000000 121.002342,312.997498 
	C113.314461,312.997101 105.623817,312.999237 97.464005,313.003174 
z"/>
<path fill="#FFFFFF" opacity="1.000000" stroke="none" 
	d="
M121.464005,313.003174 
	C120.996147,305.314117 120.997437,297.623260 120.996872,289.463013 
	C127.606621,288.995422 134.222610,289.140656 140.827942,288.938141 
	C144.111038,288.837524 145.159195,290.010010 145.058746,293.225220 
	C144.862686,299.500092 145.002136,305.785461 145.004517,312.535675 
	C137.315308,313.003693 129.624237,313.002533 121.464005,313.003174 
z"/>
<path fill="#FDFEFE" opacity="1.000000" stroke="none" 
	d="
M169.463043,313.003479 
	C168.994415,305.315582 168.995056,297.626434 168.997864,289.468628 
	C169.000000,289.000000 168.999390,289.001221 169.468094,289.001038 
	C177.626205,288.998932 185.315613,288.997040 193.003891,289.464050 
	C193.000504,297.623627 192.998245,305.314270 192.996002,313.004883 
	C192.996002,313.004883 192.999588,313.000000 193.002350,312.998138 
	C185.314163,312.998230 177.623230,313.000183 169.463043,313.003479 
z"/>
<path fill="#EEEEEE" opacity="1.000000" stroke="none" 
	d="
M193.465042,313.003082 
	C192.998245,305.314270 193.000504,297.623627 193.001160,289.466492 
	C192.999557,289.000000 192.994858,289.005005 193.464020,289.003174 
	C201.623825,288.999207 209.314468,288.997101 217.003479,289.463928 
	C216.999512,297.623596 216.997177,305.314301 216.994858,313.005005 
	C216.994858,313.005005 216.999557,313.000000 217.002350,312.997498 
	C209.314774,312.997101 201.624435,312.999207 193.465042,313.003082 
z"/>
<path fill="#FFFFFF" opacity="1.000000" stroke="none" 
	d="
M217.464020,313.003174 
	C216.997177,305.314301 216.999512,297.623596 217.000702,289.466431 
	C216.999557,289.000000 216.994858,289.005005 217.464020,289.003174 
	C225.623825,288.999237 233.314468,288.997131 241.003479,289.463928 
	C240.999512,297.623596 240.997177,305.314301 240.994858,313.005005 
	C240.994858,313.005005 240.999557,313.000000 241.002350,312.997498 
	C233.314468,312.997131 225.623825,312.999237 217.464020,313.003174 
z"/>
<path fill="#EEEEEE" opacity="1.000000" stroke="none" 
	d="
M241.464020,313.003174 
	C240.997177,305.314301 240.999512,297.623596 241.000702,289.466431 
	C240.999557,289.000000 240.994858,289.005005 241.464020,289.003174 
	C249.623779,289.002563 257.314392,289.003784 265.002502,289.002502 
	C265.000000,289.000000 264.994995,288.994995 264.996643,289.463928 
	C264.997192,297.623596 264.996094,305.314301 264.994995,313.005005 
	C264.994995,313.005005 265.000000,313.000000 265.002502,312.997498 
	C257.314392,312.997101 249.623779,312.999237 241.464020,313.003174 
z"/>
<path fill="#FFFFFF" opacity="1.000000" stroke="none" 
	d="
M265.464142,313.003174 
	C264.996094,305.314301 264.997192,297.623596 265.465820,289.465820 
	C273.623932,289.000824 281.314484,289.002930 289.005005,289.005005 
	C289.005005,289.005005 289.000000,289.000000 288.999359,289.466705 
	C288.997467,297.623932 288.996246,305.314484 288.994995,313.005005 
	C288.994995,313.005005 289.000000,313.000000 289.002502,312.997498 
	C281.314423,312.997101 273.623871,312.999207 265.464142,313.003174 
z"/>
<path fill="#EEEEEE" opacity="1.000000" stroke="none" 
	d="
M289.464142,313.003174 
	C288.996246,305.314484 288.997467,297.623932 288.996857,289.464203 
	C296.685516,288.996246 304.376068,288.997498 312.535797,288.996857 
	C313.003754,296.685516 313.002502,304.376068 313.003143,312.535797 
	C305.314423,313.003784 297.623871,313.002563 289.464142,313.003174 
z"/>
<path fill="#EEEEEE" opacity="1.000000" stroke="none" 
	d="
M48.996750,49.464016 
	C56.685474,48.997005 64.376091,48.999153 72.535912,49.003197 
	C73.005119,49.005096 72.999641,48.999649 72.999161,49.466461 
	C73.000824,57.623890 73.002960,65.314507 72.536140,73.003479 
	C64.376411,72.999504 56.685635,72.997177 48.994862,72.994850 
	C48.994862,72.994850 48.999634,72.999619 49.002365,73.002365 
	C49.002945,65.314468 49.000790,57.623821 48.996750,49.464016 
z"/>
<path fill="#F0ECE1" opacity="1.000000" stroke="none" 
	d="
M304.887848,73.035095 
	C299.766479,70.800652 294.645081,68.566200 289.264160,65.615631 
	C289.007568,59.599392 289.010498,54.299282 289.013458,48.999176 
	C289.013458,48.999176 289.001190,48.998390 289.000488,49.005768 
	C296.687744,49.011154 304.375702,49.009159 312.532471,49.003124 
	C312.997498,56.688107 312.993744,64.377129 312.989319,72.535263 
	C312.988647,73.004372 312.998383,72.999580 312.546326,72.996780 
	C309.692139,73.007683 307.290009,73.021393 304.887848,73.035095 
z"/>
<path fill="#FFFFFF" opacity="1.000000" stroke="none" 
	d="
M48.996750,73.464005 
	C56.685635,72.997177 64.376411,72.999504 72.533417,73.000740 
	C72.999641,72.999641 72.994850,72.994850 72.996750,73.464005 
	C73.000793,81.623817 73.002945,89.314468 72.536140,97.003479 
	C64.376411,96.999512 56.685635,96.997177 48.994862,96.994850 
	C48.994862,96.994850 48.999634,96.999619 49.002365,97.002365 
	C49.002945,89.314468 49.000790,81.623817 48.996750,73.464005 
z"/>
<path fill="#F0EEE6" opacity="1.000000" stroke="none" 
	d="
M316.635773,145.054352 
	C316.279022,137.328720 316.194946,129.594391 316.236908,121.398415 
	C316.726898,120.951790 317.090912,120.966797 317.729889,120.993111 
	C318.003998,128.689423 318.003082,136.374435 318.003540,144.527588 
	C317.639404,145.012360 317.273926,145.028992 316.635773,145.054352 
z"/>
<path fill="#FDFBEC" opacity="1.000000" stroke="none" 
	d="
M304.972595,73.370178 
	C307.290009,73.021393 309.692139,73.007683 312.540649,72.997742 
	C312.980865,76.101753 312.974701,79.201996 312.941071,82.781670 
	C310.294861,80.075821 307.676117,76.890533 304.972595,73.370178 
z"/>
<path fill="#EEEEEE" opacity="1.000000" stroke="none" 
	d="
M48.996750,97.464005 
	C56.685635,96.997177 64.376411,96.999512 72.533401,97.000732 
	C72.999626,96.999626 72.994850,96.994850 72.996750,97.464005 
	C72.999100,105.624397 72.999550,113.315628 72.999847,121.003555 
	C72.999695,121.000252 73.004219,121.004128 72.535324,121.001984 
	C64.376823,120.999306 56.687210,120.998779 48.997601,120.998253 
	C48.997601,120.998253 49.000149,121.000114 49.002563,121.002716 
	C49.002865,113.314598 49.000751,105.623886 48.996750,97.464005 
z"/>
<path fill="#FFFFFF" opacity="1.000000" stroke="none" 
	d="
M288.543457,48.999481 
	C289.010498,54.299282 289.007568,59.599392 289.019165,65.350586 
	C281.344360,65.754585 273.655029,65.707504 265.495819,65.118011 
	C265.018982,59.382019 265.011993,54.188442 265.005005,48.994862 
	C265.005005,48.994862 265.000000,48.999580 264.997498,49.002338 
	C272.687836,49.003326 280.380646,49.001553 288.543457,48.999481 
z"/>
<path fill="#FFFFFF" opacity="1.000000" stroke="none" 
	d="
M73.002365,73.002380 
	C73.002960,65.314507 73.000824,57.623890 72.996765,49.464069 
	C80.685471,48.997005 88.376083,48.999153 96.535912,49.003197 
	C97.005119,49.005096 96.999641,48.999649 96.999161,49.466461 
	C97.000832,57.623882 97.002975,65.314491 96.535912,73.003204 
	C88.376083,72.999153 80.685471,72.997002 72.994850,72.994850 
	C72.994850,72.994850 72.999641,72.999641 73.002365,73.002380 
z"/>
<path fill="#EEEEEE" opacity="1.000000" stroke="none" 
	d="
M97.005119,73.005096 
	C97.002975,65.314491 97.000832,57.623882 96.996765,49.464069 
	C104.685471,48.997009 112.376083,48.999157 120.535912,49.003197 
	C121.005119,49.005096 120.999649,48.999657 120.999008,49.466476 
	C120.997810,57.624939 120.997261,65.316582 120.998566,73.003738 
	C121.000420,72.999252 121.008347,72.996452 120.538788,72.997742 
	C112.377769,72.997635 104.686310,72.996246 96.997246,72.997246 
	C96.999641,72.999641 97.005119,73.005096 97.005119,73.005096 
z"/>
<path fill="#FFFFFE" opacity="1.000000" stroke="none" 
	d="
M120.996704,73.008224 
	C120.997261,65.316582 120.997810,57.624939 120.996628,49.464088 
	C128.685501,48.996880 136.376099,48.998875 144.535919,49.002792 
	C145.005127,49.004711 144.999619,48.999733 144.999481,49.466244 
	C145.063187,56.097881 145.127045,62.263004 145.190903,68.428131 
	C144.073914,69.288963 142.956924,70.149803 141.195923,71.055527 
	C140.029846,71.692696 139.507767,72.284966 138.985703,72.877243 
	C138.985703,72.877243 138.679855,73.089180 138.003632,73.072845 
	C131.883850,73.040413 126.440277,73.024315 120.996704,73.008224 
z"/>
<path fill="#EEEEED" opacity="1.000000" stroke="none" 
	d="
M145.544189,68.366814 
	C145.127045,62.263004 145.063187,56.097881 144.997314,49.463814 
	C152.685745,48.997112 160.376221,48.999359 168.535889,49.003487 
	C169.005112,49.005367 168.999634,48.999634 168.998993,49.464973 
	C169.012527,55.087460 169.026718,60.244606 169.040909,65.401749 
	C163.392502,65.687492 157.744110,65.973228 151.443832,65.995575 
	C149.853073,66.408127 148.914185,67.084076 147.975296,67.760025 
	C147.282700,67.941849 146.590088,68.123672 145.544189,68.366814 
z"/>
<path fill="#FFFFFF" opacity="1.000000" stroke="none" 
	d="
M169.490204,65.538101 
	C169.026718,60.244606 169.012527,55.087460 168.996475,49.462601 
	C176.685318,48.997025 184.376007,48.999161 192.535919,49.003197 
	C193.005127,49.005096 192.999619,48.999653 192.999146,49.464973 
	C192.974136,55.088539 192.949585,60.246780 192.925034,65.405022 
	C185.263184,65.494827 177.601334,65.584641 169.490204,65.538101 
z"/>
<path fill="#EEEEEE" opacity="1.000000" stroke="none" 
	d="
M193.382019,65.548203 
	C192.949585,60.246780 192.974136,55.088539 192.996765,49.462578 
	C200.685471,48.997009 208.376099,48.999153 216.535919,49.003197 
	C217.005127,49.005096 216.999619,48.999653 216.999146,49.464973 
	C217.012070,55.086418 217.025452,60.242546 217.038834,65.398674 
	C209.305557,65.496239 201.572266,65.593811 193.382019,65.548203 
z"/>
<path fill="#FFFFFF" opacity="1.000000" stroke="none" 
	d="
M217.488037,65.536110 
	C217.025452,60.242546 217.012070,55.086418 216.996765,49.462578 
	C224.685471,48.997009 232.376099,48.999153 240.535919,49.003197 
	C241.005127,49.005096 240.999619,48.999653 240.999146,49.464973 
	C240.974121,55.088539 240.949570,60.246780 240.925018,65.405022 
	C233.262436,65.494530 225.599838,65.584038 217.488037,65.536110 
z"/>
<path fill="#EEEEEE" opacity="1.000000" stroke="none" 
	d="
M241.381989,65.548203 
	C240.949570,60.246780 240.974121,55.088539 240.996765,49.462578 
	C248.685440,48.996136 256.376007,48.997410 264.535797,48.996773 
	C265.011993,54.188442 265.018982,59.382019 265.050842,64.990341 
	C257.330170,65.500526 249.584564,65.595955 241.381989,65.548203 
z"/>
<path fill="#F6F9FB" opacity="1.000000" stroke="none" 
	d="
M48.996696,121.466843 
	C56.687210,120.998779 64.376823,120.999306 72.532204,121.307831 
	C72.992691,122.023598 72.987404,122.431374 72.982117,122.839142 
	C67.704514,125.568443 62.426907,128.297745 56.733658,131.475510 
	C55.829376,132.583649 55.340736,133.243332 54.852097,133.903015 
	C54.852093,133.903015 54.877995,133.885193 54.859360,133.873962 
	C53.089260,136.142319 51.337799,138.421906 49.302692,140.884079 
	C49.011295,134.689590 49.003544,128.312515 48.996696,121.466843 
z"/>
<path fill="#F6F9FB" opacity="1.000000" stroke="none" 
	d="
M48.576908,142.197403 
	C48.839275,142.408722 48.739620,142.688446 48.236328,143.005157 
	C48.087978,142.820099 48.215378,142.561310 48.576908,142.197403 
z"/>
<path fill="#EEEEEE" opacity="1.000000" stroke="none" 
	d="
M289.003174,288.535858 
	C281.314484,289.002930 273.623932,289.000824 265.464203,288.996857 
	C264.994995,288.994995 265.000000,289.000000 265.000641,288.533295 
	C264.999176,280.376068 264.997101,272.685516 265.463928,264.996643 
	C273.623596,265.000488 281.314301,265.002747 289.005005,265.005005 
	C289.005005,265.005005 289.000000,265.000000 288.997498,264.997498 
	C288.997101,272.685577 288.999237,280.376129 289.003174,288.535858 
z"/>
<path fill="#FDFEFC" opacity="1.000000" stroke="none" 
	d="
M72.990013,258.133026 
	C80.652481,258.219940 88.314941,258.306824 96.468369,258.891113 
	C96.978256,261.253448 96.997177,263.118378 97.011459,264.987946 
	C97.006813,264.992554 97.005135,264.996338 96.535980,264.997803 
	C88.376053,264.998291 80.685295,264.997314 72.994530,264.996338 
	C72.994530,264.996338 72.999779,265.000000 73.001526,265.002625 
	C73.003319,263.292084 73.003357,261.578918 73.012238,259.218292 
	C73.021088,258.570831 72.990013,258.133026 72.990013,258.133026 
z"/>
<path fill="#D4E1F4" opacity="1.000000" stroke="none" 
	d="
M60.152691,253.175049 
	C62.485115,253.921402 64.803368,255.054077 67.341171,256.462921 
	C65.086655,255.679855 62.612591,254.620621 60.152691,253.175049 
z"/>
<path fill="#D4E1F4" opacity="1.000000" stroke="none" 
	d="
M55.261238,249.068298 
	C56.869198,249.872742 58.400833,251.053192 60.063488,252.527039 
	C58.524643,251.695068 56.854774,250.569672 55.261238,249.068298 
z"/>
<path fill="#D8DFEA" opacity="1.000000" stroke="none" 
	d="
M72.785347,257.938232 
	C72.990013,258.133026 73.021088,258.570831 73.014420,258.790283 
	C72.381371,258.711792 71.754990,258.413818 71.038681,257.860352 
	C71.492737,257.651062 72.036713,257.697235 72.785347,257.938232 
z"/>
<path fill="#D4E1F4" opacity="1.000000" stroke="none" 
	d="
M53.992916,247.389404 
	C54.376358,247.450409 54.795471,247.817230 55.274803,248.463745 
	C54.899548,248.394043 54.464069,248.044632 53.992916,247.389404 
z"/>
<path fill="#FEFFFE" opacity="1.000000" stroke="none" 
	d="
M265.102844,201.665955 
	C272.747589,201.499283 280.392303,201.332611 288.501556,201.202606 
	C288.977386,206.183105 288.988708,211.126984 288.997925,216.537933 
	C288.995850,217.005020 289.000000,216.999588 288.533264,216.999619 
	C280.376038,216.998337 272.685547,216.997025 264.997528,216.997772 
	C265.000000,216.999817 265.003418,217.003723 265.000671,216.537308 
	C265.032928,211.269241 265.067871,206.467606 265.102844,201.665955 
z"/>
<path fill="#FFFFFF" opacity="1.000000" stroke="none" 
	d="
M235.002777,215.743591 
	C236.103973,214.790085 237.219116,213.948044 239.008545,213.121689 
	C241.066238,216.692429 243.801163,217.226547 247.290298,217.069443 
	C253.183701,216.804092 259.097931,217.001129 265.003418,217.003723 
	C265.003418,217.003723 265.000000,216.999817 264.999359,217.466888 
	C264.997467,225.624344 264.996216,233.314728 264.997498,241.002350 
	C265.000000,240.999573 265.005005,240.994858 264.535797,240.996780 
	C256.376617,240.997314 248.686661,240.995926 240.998047,240.997253 
	C240.999390,241.000000 241.004044,241.002441 241.001587,240.533661 
	C240.991974,233.376495 240.984833,226.688141 240.944763,219.685196 
	C239.300797,218.560623 237.689743,217.750610 235.983658,216.737473 
	C235.726913,216.268890 235.501236,216.079788 235.211578,215.967010 
	C235.211578,215.967010 235.016708,215.855087 235.002777,215.743591 
z"/>
<path fill="#F0EEE7" opacity="1.000000" stroke="none" 
	d="
M265.000671,216.537292 
	C259.097931,217.001129 253.183701,216.804092 247.290298,217.069443 
	C243.801163,217.226547 241.066238,216.692429 239.307587,213.042847 
	C246.324295,206.815338 253.132034,199.408783 264.664337,201.505890 
	C265.067871,206.467606 265.032928,211.269241 265.000671,216.537292 
z"/>
<path fill="#F0EEE6" opacity="1.000000" stroke="none" 
	d="
M120.998566,73.003738 
	C126.440277,73.024315 131.883850,73.040413 137.821899,73.112640 
	C133.533920,79.851723 127.930656,86.161903 127.816811,95.058907 
	C127.727875,102.009544 127.796585,108.962090 127.738823,115.913322 
	C127.723854,117.714317 127.497139,119.513542 126.815659,121.282303 
	C126.263618,113.357635 126.263618,105.464256 126.263618,97.297600 
	C123.926750,97.167839 122.473106,97.087120 121.012627,96.537071 
	C121.006638,88.377304 121.007492,80.686882 121.008347,72.996452 
	C121.008347,72.996452 121.000420,72.999252 120.998566,73.003738 
M123.796745,92.389046 
	C123.792580,92.784973 123.788414,93.180893 123.784241,93.576820 
	C123.948524,93.578323 124.255615,93.590828 124.256462,93.579750 
	C124.286812,93.185768 124.288452,92.789566 123.796745,92.389046 
z"/>
<path fill="#E8EDF3" opacity="1.000000" stroke="none" 
	d="
M121.019470,97.006409 
	C122.473106,97.087120 123.926750,97.167839 126.263618,97.297600 
	C126.263618,105.464256 126.263618,113.357635 126.518044,121.554199 
	C126.772469,121.857391 126.889542,122.231544 126.892456,122.426163 
	C109.236763,122.717567 91.578156,122.814346 73.450829,122.875137 
	C72.987404,122.431374 72.992691,122.023598 73.001099,121.309975 
	C73.004219,121.004128 72.999695,121.000252 73.468483,121.002380 
	C81.631989,121.005653 89.326698,121.006790 97.487602,121.006027 
	C104.228241,121.003296 110.507004,120.864174 116.775368,121.059044 
	C119.988045,121.158920 121.160507,120.105179 121.061539,116.828972 
	C120.862198,110.230362 121.005455,103.621407 121.004333,97.010284 
	C121.001312,97.003845 121.019470,97.006409 121.019470,97.006409 
z"/>
<path fill="#F0ECE1" opacity="1.000000" stroke="none" 
	d="
M148.298676,67.803833 
	C148.914185,67.084076 149.853073,66.408127 150.988876,66.037437 
	C150.331207,66.844353 149.476639,67.346001 148.298676,67.803833 
z"/>
<path fill="#F0EEE6" opacity="1.000000" stroke="none" 
	d="
M139.296158,72.864281 
	C139.507767,72.284966 140.029846,71.692696 140.887634,71.120667 
	C140.684418,71.711044 140.145523,72.281181 139.296158,72.864281 
z"/>
<path fill="#FEFFFF" opacity="1.000000" stroke="none" 
	d="
M121.004776,288.537506 
	C113.315315,289.003021 105.624306,289.001129 97.464081,288.997253 
	C96.994865,288.995239 97.000381,289.000000 97.000542,288.533295 
	C97.002182,280.376495 97.003662,272.686432 97.005135,264.996338 
	C97.005135,264.996338 97.006813,264.992554 97.477943,264.981110 
	C104.104530,264.891998 110.259979,264.814362 116.415436,264.736725 
	C117.853653,265.603973 119.291870,266.471222 120.874992,268.033020 
	C121.020370,270.150879 121.020844,271.574219 121.021317,272.997559 
	C121.015282,278.021759 121.009247,283.045929 121.004776,288.537506 
z"/>
<path fill="#FCFDFE" opacity="1.000000" stroke="none" 
	d="
M216.765320,255.462982 
	C221.589584,250.732315 226.413849,246.001648 231.977905,241.112640 
	C235.479797,240.970337 238.241928,240.986389 241.004044,241.002441 
	C241.004044,241.002441 240.999390,241.000000 240.999634,241.466507 
	C240.998917,249.623642 240.997940,257.314270 240.998276,265.002441 
	C240.999603,265.000000 241.004929,264.997009 240.535980,264.998779 
	C232.376312,264.999237 224.685562,264.997955 216.997345,264.998352 
	C216.999878,265.000000 217.003052,265.004883 217.001007,264.539551 
	C216.921082,261.203827 216.843201,258.333405 216.765320,255.462982 
z"/>
<path fill="#FDFEFE" opacity="1.000000" stroke="none" 
	d="
M169.000000,289.000000 
	C167.765381,289.602234 166.530777,290.204498 164.985901,291.007507 
	C162.873993,283.069763 161.072342,274.931274 159.592255,266.203308 
	C162.923843,265.390411 165.933914,265.166992 168.956848,264.956848 
	C168.969711,264.970062 168.995682,264.996338 168.997681,265.465363 
	C168.999588,273.623322 168.999481,281.312286 168.999390,289.001221 
	C168.999390,289.001221 169.000000,289.000000 169.000000,289.000000 
z"/>
<path fill="#ECEDEE" opacity="1.000000" stroke="none" 
	d="
M216.372955,255.535492 
	C216.843201,258.333405 216.921082,261.203827 216.532028,264.537476 
	C208.375168,264.998444 200.685226,264.996155 192.997406,264.996765 
	C192.999527,264.999634 193.005798,265.004211 193.004761,264.602173 
	C192.991455,262.369202 192.979187,260.538208 192.966904,258.707245 
	C200.638138,257.674164 208.309387,256.641083 216.372955,255.535492 
z"/>
<path fill="#FDFEFC" opacity="1.000000" stroke="none" 
	d="
M192.521088,258.560669 
	C192.979187,260.538208 192.991455,262.369202 192.535492,264.600830 
	C184.376709,264.999756 176.686203,264.998047 168.995682,264.996338 
	C168.995682,264.996338 168.969711,264.970062 168.953796,264.554413 
	C169.009689,262.281799 169.081482,260.424805 169.153290,258.567871 
	C176.793945,258.516602 184.434616,258.465332 192.521088,258.560669 
z"/>
<path fill="#E9ECEF" opacity="1.000000" stroke="none" 
	d="
M241.001587,240.533661 
	C238.241928,240.986389 235.479797,240.970337 232.253174,240.928070 
	C232.880722,232.898804 233.972763,224.895767 235.138184,216.429871 
	C235.501236,216.079788 235.726913,216.268890 236.102600,217.052719 
	C237.870270,218.380661 239.423965,219.190216 240.977676,219.999771 
	C240.984833,226.688141 240.991974,233.376495 241.001587,240.533661 
z"/>
<path fill="#D8DFEA" opacity="1.000000" stroke="none" 
	d="
M116.256248,264.435486 
	C110.259979,264.814362 104.104530,264.891998 97.482590,264.976501 
	C96.997177,263.118378 96.978256,261.253448 96.914223,259.000854 
	C104.301186,256.891663 110.636383,258.990143 116.256248,264.435486 
z"/>
<path fill="#CDD7E6" opacity="1.000000" stroke="none" 
	d="
M168.711670,258.426147 
	C169.081482,260.424805 169.009689,262.281799 168.940918,264.541199 
	C165.933914,265.166992 162.923843,265.390411 159.573898,265.815033 
	C157.093765,259.354797 157.941772,258.163086 164.842300,258.174255 
	C165.984940,258.176117 167.127487,258.246033 168.711670,258.426147 
z"/>
<path fill="#EAECEE" opacity="1.000000" stroke="none" 
	d="
M121.458015,272.998291 
	C121.020844,271.574219 121.020370,270.150879 121.043304,268.300659 
	C123.551712,269.416138 126.036713,270.958496 128.692734,272.781128 
	C126.540741,273.040619 124.217728,273.019836 121.458015,272.998291 
z"/>
<path fill="#EAECEE" opacity="1.000000" stroke="none" 
	d="
M138.872894,279.684814 
	C136.405090,278.486786 133.762177,277.003143 131.145538,275.144592 
	C133.680481,276.312866 136.189148,277.856018 138.872894,279.684814 
z"/>
<path fill="#EAECEE" opacity="1.000000" stroke="none" 
	d="
M145.069763,284.452301 
	C141.729706,287.446564 141.824493,284.301849 141.250061,282.028717 
	C142.563126,282.470306 143.792358,283.296204 145.069763,284.452301 
z"/>
<path fill="#EAECEE" opacity="1.000000" stroke="none" 
	d="
M141.207550,281.388458 
	C140.579422,281.329865 139.843979,280.988403 139.066772,280.299500 
	C139.716751,280.336548 140.408493,280.721069 141.207550,281.388458 
z"/>
<path fill="#EAECEE" opacity="1.000000" stroke="none" 
	d="
M131.063538,274.568237 
	C130.488968,274.477081 129.788696,274.119507 129.018967,273.442017 
	C129.612289,273.515320 130.275055,273.908569 131.063538,274.568237 
z"/>
<path fill="#4167A3" opacity="1.000000" stroke="none" 
	d="
M55.215290,133.885849 
	C55.340736,133.243332 55.829376,132.583649 56.600178,131.782776 
	C56.447723,132.383942 56.013103,133.126312 55.215290,133.885849 
z"/>
<path fill="#EEEEEE" opacity="1.000000" stroke="none" 
	d="
M264.994995,241.005112 
	C264.996216,233.314728 264.997467,225.624344 264.996887,217.464844 
	C272.685547,216.997025 280.376038,216.998337 288.535736,216.997681 
	C289.002869,224.686050 289.000793,232.376373 288.996857,240.535919 
	C288.994995,241.005127 289.000000,240.999573 288.533295,240.999146 
	C280.376068,241.000839 272.685516,241.002975 264.994995,241.005112 
z"/>
<path fill="#FFFFFF" opacity="1.000000" stroke="none" 
	d="
M264.997498,241.002350 
	C272.685516,241.002975 280.376068,241.000839 288.535797,240.996780 
	C289.003754,248.685440 289.002502,256.376007 289.003143,264.535797 
	C281.314301,265.002747 273.623596,265.000488 265.466431,264.999146 
	C265.000000,265.000000 265.005005,265.005005 265.003174,264.535858 
	C265.002563,256.376099 265.003784,248.685471 265.005005,240.994858 
	C265.005005,240.994858 265.000000,240.999573 264.997498,241.002350 
z"/>
<path fill="#EEEEEE" opacity="1.000000" stroke="none" 
	d="
M96.535980,264.997803 
	C97.003662,272.686432 97.002182,280.376495 97.002640,288.535767 
	C89.314140,289.003723 81.623711,289.002502 73.464066,289.003143 
	C72.996078,281.314819 72.997314,273.624634 72.996536,265.465393 
	C80.685295,264.997314 88.376053,264.998291 96.535980,264.997803 
z"/>
<path fill="#EEEEEE" opacity="1.000000" stroke="none" 
	d="
M168.997681,265.465363 
	C176.686203,264.998047 184.376709,264.999756 192.536514,265.002838 
	C193.005798,265.004211 192.999527,264.999634 192.999207,265.466095 
	C192.997528,273.623383 192.996185,281.314178 192.994858,289.005005 
	C192.994858,289.005005 192.999557,289.000000 193.002289,288.997559 
	C185.315613,288.997040 177.626205,288.998932 169.468094,289.001038 
	C168.999481,281.312286 168.999588,273.623322 168.997681,265.465363 
z"/>
<path fill="#FFFFFF" opacity="1.000000" stroke="none" 
	d="
M193.464020,289.003174 
	C192.996185,281.314178 192.997528,273.623383 192.997086,265.463196 
	C200.685226,264.996155 208.375168,264.998444 216.534073,265.002808 
	C217.003052,265.004883 216.999878,265.000000 216.999268,265.467316 
	C216.997406,273.624756 216.996140,281.314880 216.994858,289.005005 
	C216.994858,289.005005 216.999557,289.000000 217.002350,288.997498 
	C209.314468,288.997101 201.623825,288.999207 193.464020,289.003174 
z"/>
<path fill="#EEEEEE" opacity="1.000000" stroke="none" 
	d="
M217.464020,289.003174 
	C216.996140,281.314880 216.997406,273.624756 216.996750,265.465637 
	C224.685562,264.997955 232.376312,264.999237 240.534149,265.467712 
	C240.999115,273.624969 240.996994,281.314972 240.994858,289.005005 
	C240.994858,289.005005 240.999557,289.000000 241.002350,288.997498 
	C233.314468,288.997131 225.623825,288.999237 217.464020,289.003174 
z"/>
<path fill="#FFFFFF" opacity="1.000000" stroke="none" 
	d="
M241.464020,289.003174 
	C240.996994,281.314972 240.999115,273.624969 241.003082,265.465973 
	C241.004929,264.997009 240.999603,265.000000 241.467255,265.000610 
	C249.624939,265.002502 257.314972,265.003754 265.005005,265.005005 
	C265.005005,265.005005 265.000000,265.000000 264.997498,264.997498 
	C264.997101,272.685516 264.999176,280.376068 265.003143,288.535797 
	C257.314392,289.003784 249.623779,289.002563 241.464020,289.003174 
z"/>
<path fill="#EEEEEE" opacity="1.000000" stroke="none" 
	d="
M72.996750,73.464005 
	C80.685471,72.997002 88.376083,72.999153 96.535912,73.003204 
	C97.005119,73.005096 96.999641,72.999641 96.999138,73.466461 
	C97.000771,81.623894 97.002899,89.314507 96.536072,97.003487 
	C88.376366,96.999512 80.685608,96.997185 72.994850,96.994850 
	C72.994850,96.994850 72.999626,96.999626 73.002365,97.002373 
	C73.002945,89.314468 73.000793,81.623817 72.996750,73.464005 
z"/>
<path fill="#FFFFFF" opacity="1.000000" stroke="none" 
	d="
M72.996750,97.464005 
	C80.685608,96.997185 88.376366,96.999512 96.533386,97.000748 
	C96.999657,96.999641 96.994850,96.994926 96.996750,97.464081 
	C97.006233,105.624794 97.013824,113.316368 97.021416,121.007935 
	C89.326698,121.006790 81.631989,121.005653 73.468636,121.005684 
	C72.999550,113.315628 72.999100,105.624397 72.996750,97.464005 
z"/>
<path fill="#FFFFFF" opacity="1.000000" stroke="none" 
	d="
M97.002342,97.002380 
	C97.002899,89.314507 97.000771,81.623894 96.996742,73.464066 
	C104.686310,72.996246 112.377769,72.997635 120.538788,72.997742 
	C121.007492,80.686882 121.006638,88.377304 121.012627,96.537071 
	C121.019470,97.006409 121.001312,97.003845 120.534882,97.003792 
	C112.377251,97.000801 104.686050,96.997864 96.994850,96.994926 
	C96.994850,96.994926 96.999657,96.999641 97.002342,97.002380 
z"/>
<path fill="#EEEEEE" opacity="1.000000" stroke="none" 
	d="
M265.003174,264.535858 
	C257.314972,265.003754 249.624939,265.002502 241.465927,265.003052 
	C240.997940,257.314270 240.998917,249.623642 240.998291,241.463776 
	C248.686661,240.995926 256.376617,240.997314 264.535797,240.996780 
	C265.003784,248.685471 265.002563,256.376099 265.003174,264.535858 
z"/>
<path fill="#F0EEE7" opacity="1.000000" stroke="none" 
	d="
M240.944763,219.685196 
	C239.423965,219.190216 237.870270,218.380661 236.197617,217.255859 
	C237.689743,217.750610 239.300797,218.560623 240.944763,219.685196 
z"/>
<path fill="#E8EDF3" opacity="1.000000" stroke="none" 
	d="
M124.045441,92.391365 
	C124.288452,92.789566 124.286812,93.185768 124.256462,93.579750 
	C124.255615,93.590828 123.948524,93.578323 123.784241,93.576820 
	C123.788414,93.180893 123.792580,92.784973 124.045441,92.391365 
z"/>
<path fill="#EEEEEE" opacity="1.000000" stroke="none" 
	d="
M96.996750,97.464081 
	C104.686050,96.997864 112.377251,97.000801 120.537903,97.010223 
	C121.005455,103.621407 120.862198,110.230362 121.061539,116.828972 
	C121.160507,120.105179 119.988045,121.158920 116.775368,121.059044 
	C110.507004,120.864174 104.228241,121.003296 97.487602,121.006027 
	C97.013824,113.316368 97.006233,105.624794 96.996750,97.464081 
z"/>
</svg>